<?xml version="1.0" encoding="utf-8"?>
<!-- Generator: Adobe Illustrator 23.1.1, SVG Export Plug-In . SVG Version: 6.00 Build 0)  -->
<svg version="1.1" id="Laag_1" xmlns="http://www.w3.org/2000/svg" xmlns:xlink="http://www.w3.org/1999/xlink" x="0px" y="0px"
	 viewBox="0 0 383.34 322.41" style="enable-background:new 0 0 383.34 322.41;" xml:space="preserve">
<style type="text/css">
	.st0{fill:#FFFFFF;}
</style>
<g>
	<path class="st0" d="M186,184.61c-13.63,0.36-27.26,0.72-40.88,1.08c-1.3,0.03-2.44,0-3.44,1.37c-0.57,0.78-2.37,1.11-3.5,0.93
		c-1.61-0.26-1.96-1.76-1.87-3.33c0.58-10.45,1.1-20.91,1.68-31.36c0.75-13.44,1.56-26.87,2.3-40.31c0.11-1.94,0.31-3.79,2.6-4.22
		c2.36-0.44,3.24,1.25,4.19,3.05c4.23,8.07,8.42,16.16,12.98,24.04c1.45,2.51,3.79,4.63,6.06,6.52c3.11,2.6,5.75,2.22,8.01-1.1
		c2.1-3.07,3.84-6.39,5.64-9.66c4.47-8.14,8.89-16.31,13.31-24.49c0.82-1.52,1.99-2.84,3.7-2.14c1.17,0.48,2.41,1.77,2.83,2.97
		c2.49,7.28,4.51,14.73,7.19,21.94c1.25,3.35,3.3,6.55,5.59,9.32c3.44,4.17,7.08,3.91,10.21-0.46c6.12-8.58,12.06-17.29,18.15-25.89
		c0.67-0.95,1.77-1.83,2.85-2.21c2.23-0.79,4.01,0.76,3.71,3.12c-1.61,12.34-3.32,24.67-4.91,37.02
		c-0.98,7.65-1.83,15.33-2.72,22.99c-0.79,6.81-3.28,9.32-10.07,10.06c-1.65,0.18-3.31,0.29-4.97,0.29
		c-12.88,0.02-25.75,0.01-38.63,0.01C186,184.32,186,184.47,186,184.61z M239.23,126.56c-0.17-0.03-0.35-0.06-0.52-0.09
		c-2.33,3.12-4.65,6.24-6.98,9.36c-3.38,4.53-6.61,9.16-10.17,13.54c-3.37,4.15-7.84,3.93-11.17-0.27c-0.77-0.97-1.57-1.98-2.07-3.1
		c-3.86-8.7-7.67-17.42-11.45-26.16c-0.51-1.18-0.8-2.46-1.38-4.29c-5.09,9.39-9.84,18.32-14.75,27.15
		c-1.68,3.03-3.73,5.86-5.71,8.71c-1.53,2.21-3.48,2.35-5.88,1.21c-7.7-3.63-13.64-9.09-17.57-16.65c-1.82-3.5-3.44-7.1-5.14-10.65
		c-0.14,0-0.27,0.01-0.41,0.01c-1.02,18.08-2.04,36.16-3.07,54.5c1.07,0,1.96,0.02,2.85,0c26.08-0.83,52.15-1.66,78.23-2.5
		c6.34-0.21,9.86-3.58,10.58-10.26c0.9-8.33,1.62-16.68,2.54-25.01C237.74,136.88,238.53,131.73,239.23,126.56z"/>
	<path class="st0" d="M231.91,207.68c1-3.05,1.93-6.13,3.03-9.14c0.31-0.86,1.11-1.55,1.68-2.31c0.58,1.23,1.84,2.6,1.63,3.67
		c-0.62,3.06-1.82,6.01-2.82,8.99c-0.42,1.25-0.84,2.52-1.42,3.71c-0.37,0.76-1.11,1.98-1.57,1.93c-0.8-0.09-1.96-0.86-2.18-1.58
		c-1.01-3.38-1.78-6.83-2.58-10.27c-0.2-0.87-0.2-1.79-0.33-3.03c-2.51,0.22-4.86,0.42-7.61,0.67c-0.24,3.85-0.4,7.63-0.75,11.4
		c-0.1,1.1-0.75,2.15-1.15,3.22c-0.8-1.21-2.26-2.41-2.29-3.65c-0.1-3.54,0.38-7.09,0.61-10.37c-1.82-0.45-3.6-0.64-5.09-1.39
		c-0.68-0.34-0.79-1.81-1.34-3.25c4.68-0.35,8.87-0.69,13.06-0.96c1.4-0.09,2.82,0.09,4.22-0.03c2.46-0.21,3.22,1.25,3.39,3.29
		c0.26,3.03,0.44,6.06,0.66,9.09C231.35,207.66,231.63,207.67,231.91,207.68z"/>
	<path class="st0" d="M187.05,194.21c2.57,0.53,3.07,2.32,3.66,4.04c1.26,3.72,2.54,7.43,3.81,11.15c0.25-0.05,0.5-0.1,0.75-0.15
		c0.59-4.77,1.18-9.54,1.76-14.31c0.39-0.12,0.77-0.24,1.16-0.36c0.7,1.01,2.07,2.09,1.98,3.02c-0.56,5.84-1.44,11.66-2.26,17.47
		c-0.07,0.52-0.47,1-0.92,1.93c-4.35-3.12-5.03-8.19-7.74-12.45c-0.7,2.77-1.22,5.28-2,7.71c-0.29,0.9-1.37,2.38-1.77,2.28
		c-1.75-0.42-2.44-1.85-2-3.64c0.86-3.54,1.84-7.05,2.64-10.6C186.56,198.34,186.74,196.3,187.05,194.21z"/>
	<path class="st0" d="M170.96,197.73c-0.51-1.38-0.95-2.58-1.53-4.15c7.58,2.18,13.47,7.49,11.36,14.72
		c-1.28,4.39-6.31,7.58-10.83,6.98c-3.15-0.41-5.46-4.03-4.97-7.77C165.54,203.33,167.39,200.31,170.96,197.73z M175.98,200.05
		c-0.69,0.39-1.24,0.75-1.83,1.01c-3.62,1.57-5.22,4.58-5.97,8.24c-0.38,1.86,0.36,2.44,2.12,2.11c3.18-0.59,5.72-2.09,7.23-5.04
		C178.89,203.73,178.52,202.22,175.98,200.05z"/>
	<path class="st0" d="M157.51,200.18c-2.15,3.5-4.06,6.6-5.97,9.7c0.21,0.21,0.42,0.42,0.63,0.63c2.26-0.93,4.59-1.73,6.75-2.85
		c1.59-0.83,2.64-0.68,3.51,0.85c0.86,1.5,0.61,2.72-0.99,3.49c-2.3,1.12-4.57,2.34-6.97,3.23c-3.34,1.23-5.62-0.29-6.15-3.81
		c-0.45-2.92,0.13-5.65,1.69-8.09c1.51-2.37,3.15-4.68,4.89-6.89c1.47-1.88,3.04-1.88,4.5,0.02c0.82,1.08,1.38,2.45,1.72,3.78
		c0.18,0.72-0.35,1.63-0.56,2.45c-0.68-0.39-1.39-0.75-2.04-1.18C158.26,201.36,158.12,201.02,157.51,200.18z"/>
	<path class="st0" d="M143.09,207.67c1.48,1.58,2.94,2.55,3.37,3.86c0.22,0.65-1.45,1.93-2.26,2.92c-0.46,0.57-1.18,1.08-1.32,1.72
		c-0.33,1.49-0.93,1.8-2.24,1.05c-0.75-0.43-1.77-0.52-2.34-1.09c-0.94-0.94-1.73-2.09-2.3-3.28c-0.09-0.18,1.44-1.03,2.1-1.7
		c0.5-0.51,1.11-1.19,1.15-1.83c0.16-2.56,0.2-5.14,0.09-7.71c-0.03-0.62-0.8-1.2-1.16-1.83c-0.63-1.09-1.57-2.18-1.66-3.32
		c-0.04-0.5,1.64-1.37,2.66-1.65c1.42-0.39,2.94-0.48,4.42-0.52c1.99-0.05,2.74,1.49,2.93,3.06c0.05,0.45-1.42,1.03-2.09,1.65
		c-0.52,0.48-1.26,1.1-1.29,1.69C143.01,203.33,143.09,205.98,143.09,207.67z"/>
</g>
</svg>
