<?xml version="1.0" encoding="utf-8"?>
<!-- Generator: Adobe Illustrator 23.1.1, SVG Export Plug-In . SVG Version: 6.00 Build 0)  -->
<svg version="1.1" id="Laag_1" xmlns="http://www.w3.org/2000/svg" xmlns:xlink="http://www.w3.org/1999/xlink" x="0px" y="0px"
	 viewBox="0 0 383.34 322.41" style="enable-background:new 0 0 383.34 322.41;" xml:space="preserve">
<g>
	<path d="M182.9,137.08c-4.18,2.35-8.11,4.78-12.24,6.8c-3.04,1.49-6.3,2.58-9.53,3.6c-4.03,1.27-6.82,0.13-9.15-3.4
		c-0.53-0.81-0.99-1.67-1.33-2.25c-2.63,1.32-5.17,2.5-7.59,3.9c-0.6,0.35-1.02,1.36-1.13,2.12c-0.23,1.53,0.21,3.69-1.7,3.94
		c-1.33,0.17-3-0.92-4.24-1.82c-0.96-0.7-1.57-1.2-2.94-1.03c-3.55,0.46-7.91-5.96-6.35-9.2c0.32-0.65,1.13-1.13,1.8-1.53
		c0.39-0.23,0.98-0.09,1.47-0.18c3.99-0.7,4.01-0.71,4.02-4.7c0.02-6.73,0.01-13.46,0.01-20.39c-3.38-0.14-5.23-2.77-6.43-6.02
		c-0.76-2.07-0.27-3.6,2-4.58c4.61-2,9.46-2.54,14.37-2.55c3.75-0.01,7.34,4.96,6.23,8.56c-0.23,0.75-1.41,1.51-2.28,1.71
		c-1.67,0.39-3.43,0.39-5.16,0.55c-0.14,0.71-0.31,1.19-0.31,1.67c-0.02,6.81-0.01,13.61-0.01,20.76c2.44-1.5,4.79-1.07,6.55,1.83
		c0.14-9.24,4.98-16.11,9.86-22.94c1.88-2.64,3.89-5.19,5.93-7.71c2.7-3.34,5.58-3.5,8.73-0.66c3.75,3.39,4.79,7.87,5.01,12.6
		c0.12,2.48-1.85,3.49-3.83,1.96c-1.47-1.14-2.58-2.74-4.11-4.42c-5.7,6.57-10.88,13.67-13.52,23.14c5.94-2.48,11.5-4.52,16.8-7.1
		c3.61-1.76,4.77-1.82,7.13,1.53c0.31,0.44,0.59,0.9,1.04,1.59c0.62-11.04,4.54-19.88,14.54-25.63c-0.71-0.84-1.59-1.61-2.11-2.56
		c-0.74-1.35-1.52-2.79-1.74-4.27c-0.26-1.71,1.35-2.9,2.72-1.96c5.49,3.79,12.13,5.74,16.72,11.02
		c11.61,13.37,6.46,31.53-10.53,36.55c-1.51,0.44-3.05,0.88-4.61,1.01c-6.43,0.53-10.58-2-13.26-7.93
		C183.35,138.26,183.04,137.41,182.9,137.08z M206.45,112.33c-0.92,0.74-1.67,1.73-2.66,2.1c-9.51,3.51-13.47,11.02-14.82,20.4
		c-0.46,3.19,0.2,3.95,3.48,3.66c8-0.71,14.26-4.44,18.07-11.58C213.7,121.01,211.9,115.37,206.45,112.33z"/>
	<path d="M160.23,198.66c-0.63,5.46-1.28,10.4-1.72,15.35c-0.1,1.06,0.46,2.21,0.84,3.27c0.5,1.4,1.32,2.71,1.61,4.14
		c0.17,0.83-0.16,2.09-0.75,2.65c-0.4,0.38-1.78,0.16-2.47-0.24c-3.02-1.75-6.1-3.52-6.43-7.59c-0.03-0.39-0.22-0.81-0.45-1.13
		c-6.04-8.54-12.09-17.07-18.15-25.6c-0.04-0.05-0.15-0.05-0.65-0.2c-0.61,4.12-1.16,8.2-1.84,12.25c-0.19,1.13-0.78,2.2-1.19,3.29
		c-1.3-0.6-3.18-0.87-3.76-1.88c-1.09-1.91-1.97-4.26-1.96-6.42c0.01-3.37,0.9-6.73,1.28-10.11c0.19-1.7,0.08-3.43,0.15-5.15
		c0.06-1.49-0.52-3.22,1.6-3.98c0.36-0.13,0.44-1.05,0.69-1.73c-0.51,0.06-0.68,0.05-0.83,0.1c-1.56,0.55-3.27,2.45-4.73,0.73
		c-1.54-1.8-2.53-4.15-3.38-6.41c-0.24-0.62,0.64-2.16,1.4-2.59c7-3.9,14.37-5.55,22.24-2.93c4.99,1.66,8.98,6.8,9.04,11.43
		c0.03,2.73-1.02,4.93-3.38,6.24c-2.81,1.56-5.76,2.87-8.79,4.36c0.26,0.44,0.67,1.13,1.07,1.8c1.03-0.89,1.85-2.15,2.9-2.38
		c1.16-0.25,2.55,0.36,3.8,0.75c1.58,0.5,3.1,1.19,4.66,1.74c0.69,0.24,1.42,0.33,2.63,0.6c0.34-2.57,0.77-4.98,0.96-7.41
		c0.32-4.14,0.32-8.3,0.77-12.42c0.22-1.99,0.77-4.37,3.59-4.24c1.11,0.05,2.68,0.48,3.21,1.28c2.17,3.3,4.36,6.67,5.91,10.29
		c2.09,4.86,3.55,10,5.41,14.97c0.69,1.85,1.8,3.54,2.68,5.32c0.47,0.96,1.14,1.94,1.19,2.94c0.06,0.95-0.31,2.25-0.98,2.8
		c-0.45,0.37-2.18,0.02-2.61-0.55C170.18,197.18,164.99,199.72,160.23,198.66z M151.45,205.55c0.21-0.03,0.42-0.06,0.62-0.1
		c0.26-2.08,0.52-4.16,0.8-6.24c0.19-1.44-0.45-2.14-1.86-2.32c-2.01-0.26-4-0.59-6.29-0.94
		C147.04,199.27,149.25,202.41,151.45,205.55z M166.92,189.39c-1.5-3.2-2.89-6.15-4.27-9.09c-0.23,0.08-0.47,0.16-0.7,0.25
		c-0.23,1.93-0.48,3.86-0.69,5.79c-0.1,0.97-0.13,1.94-0.2,3.06C162.96,189.39,164.73,189.39,166.92,189.39z M141.92,173.72
		c-4.29-1.56-5.38-1.08-5.93,2.37C137.88,175.34,139.66,174.63,141.92,173.72z"/>
	<path d="M232.01,121.92c-1.77,7.18-3.44,14.11-5.21,21.01c-0.76,2.97-3.02,3.6-5.3,1.5c-2.22-2.05-3.29-4.5-2.33-7.61
		c3.48-11.28,6.11-22.75,7.45-34.5c0.27-2.38,2.06-3.24,3.76-1.54c1.74,1.74,3.41,3.97,4.08,6.28c2.54,8.79,5.17,17.51,9.52,25.61
		c0.38,0.7,0.78,1.39,1.73,2.03c0.47-5.07,0.84-10.16,1.43-15.22c0.61-5.27,1.33-10.54,2.19-15.77c0.43-2.61,1.47-2.97,3.87-1.83
		c2.38,1.13,3.73,3.46,3.42,6.34c-0.9,8.42-1.74,16.84-2.87,25.23c-0.63,4.67-1.67,9.29-2.75,13.88c-0.64,2.7-2.06,3.15-4.39,1.49
		c-1.17-0.84-2.32-1.97-2.96-3.23c-3.61-7.1-7.06-14.28-10.56-21.43C232.74,123.42,232.39,122.69,232.01,121.92z"/>
	<path d="M243.28,169.64c-1.09-1.56-2.45-3-3.15-4.7c-0.46-1.1,0.04-2.59,0.12-3.91c1.26,0.27,2.66,0.28,3.77,0.86
		c3.37,1.75,6.76,3.51,9.9,5.62c6.59,4.44,10.84,10.45,11.33,18.64c0.63,10.48-5.95,19.16-16.9,22.28
		c-1.43,0.41-2.89,0.84-4.36,0.97c-8.42,0.7-14.72-5.31-14.78-14.36C229.12,184.08,233.68,175.55,243.28,169.64z M253.38,174.74
		c-0.93,0.75-1.68,1.73-2.67,2.09c-9.51,3.52-13.46,11.03-14.81,20.41c-0.46,3.18,0.21,3.95,3.49,3.65
		c7.99-0.71,14.25-4.45,18.07-11.58C260.62,183.4,258.81,177.73,253.38,174.74z"/>
	<path d="M176.14,178.06c-4.16,0.85-8.87-4.25-7.8-8.16c0.16-0.58,0.87-1.2,1.46-1.42c1.24-0.46,2.62-0.54,3.84-1.02
		c0.86-0.34,1.78-0.93,2.27-1.67c1.26-1.89,2.83-1.66,3.92-0.32c1.75,2.15,4.1,2.18,6.42,2.59c6.32,1.11,12.27,2.98,16.59,8.19
		c3.43,4.14,3.98,8.74,1.2,13.15c-2.32,3.68-5.43,6.89-8.34,10.17c-1.82,2.05-4.04,3.73-5.86,5.78c-0.99,1.11-1.68,2.57-2.23,3.97
		c-0.68,1.76-1.93,2.42-3.11,0.99c-1.7-2.04-3.65-4.35-4.16-6.81c-1.55-7.55-2.45-15.24-3.62-22.87
		C176.59,179.81,176.36,179.03,176.14,178.06z M184.27,177.02c-0.22,0.3-0.43,0.59-0.65,0.89c0.64,5.15,1.27,10.3,1.91,15.45
		c0.24,0.07,0.48,0.15,0.72,0.22c3.78-4.06,7.57-8.12,11.35-12.18c-0.05-0.3-0.09-0.6-0.14-0.89
		C193.07,179.34,188.67,178.18,184.27,177.02z"/>
	<path d="M211.88,175.29c-3.55-0.11-5.3-2.85-6.47-6.11c-0.7-1.95-0.21-3.44,1.96-4.4c4.68-2.07,9.61-2.61,14.61-2.59
		c3.63,0.02,7.11,4.89,6.09,8.45c-0.23,0.79-1.54,1.72-2.43,1.81c-5.33,0.55-5.39,0.48-5.44,5.86c-0.06,5.63-0.01,11.26-0.01,16.88
		c4.62-0.73,7.44,1.1,8.03,5.81c0.16,1.28-0.61,3.09-1.57,4c-1.33,1.27-3.17,2.18-4.95,2.76c-1.62,0.53-1.88,1.36-2.02,2.86
		c-0.12,1.26-0.74,3.3-1.5,3.48c-1.14,0.27-2.8-0.52-3.87-1.34c-1.19-0.91-1.98-1.64-3.77-1.47c-3.35,0.31-7.39-6.01-5.96-9.07
		c0.35-0.75,1.39-1.28,2.22-1.67c0.72-0.34,1.6-0.39,2.42-0.48c2.13-0.24,2.77-1.36,2.72-3.5
		C211.8,189.54,211.88,182.48,211.88,175.29z"/>
</g>
</svg>
