<svg xmlns="http://www.w3.org/2000/svg" width="167.906" height="29.135"><defs><style>.cls-1{fill:#b52525}.cls-2{fill:#fff}</style></defs><g id="Asset_2" data-name="Asset 2" transform="translate(0 -.012)"><g id="Layer_1" data-name="Layer 1" transform="translate(0 .012)"><g id="Test"><path id="Path_7196" data-name="Path 7196" class="cls-1" d="M5.362 8.3l4.863 8.1L19.971.159a.254.254 0 0 1 .346-.087.259.259 0 0 1 .123.216v24.625a3.405 3.405 0 0 1-3.405-3.405v-9.363l-4.86 8.1a.848.848 0 0 1-.729.413H9a.844.844 0 0 1-.729-.416l-4.86-8.1v13.623h13.628a3.405 3.405 0 0 1 3.405 3.405H3.405A3.405 3.405 0 0 1 0 25.765V8.74a.848.848 0 0 1 .849-.849H4.63a.857.857 0 0 1 .732.413z" transform="translate(0 -.036)"/><path id="Path_7197" data-name="Path 7197" class="cls-1" d="M654.578 8.279l-4.86 8.1L639.969.134a.253.253 0 0 0-.469.13v24.625a3.405 3.405 0 0 0 3.405-3.405v-9.363l4.86 8.1a.848.848 0 0 0 .729.413h2.443a.844.844 0 0 0 .729-.416l4.86-8.1v13.623h-13.62a3.405 3.405 0 0 0-3.405 3.405h17.035a3.405 3.405 0 0 0 3.405-3.405V8.715a.848.848 0 0 0-.849-.849h-3.781a.853.853 0 0 0-.733.413z" transform="translate(-618.214 -.012)"/><path id="Path_7198" data-name="Path 7198" class="cls-2" d="M1381.373 236.5h2.51a.428.428 0 0 1 .483.486v20.224a.429.429 0 0 1-.483.486h-2.39a.436.436 0 0 1-.316-.137.474.474 0 0 1-.137-.349v-10.082l-1.907 6.872a.45.45 0 0 1-.453.333h-2.6a.467.467 0 0 1-.483-.333l-1.874-6.873v10.083a.429.429 0 0 1-.483.486h-2.4a.436.436 0 0 1-.316-.137.474.474 0 0 1-.136-.349v-20.224a.485.485 0 0 1 .136-.349.436.436 0 0 1 .316-.136h2.51a.419.419 0 0 1 .453.333l3.568 11.414 3.538-11.414a.431.431 0 0 1 .464-.334z" transform="translate(-1324.777 -228.628)"/><path id="Path_7199" data-name="Path 7199" class="cls-2" d="M1847.344 237l-3.931 13.138v6.962a.43.43 0 0 1-.483.486h-2.42a.437.437 0 0 1-.316-.136.474.474 0 0 1-.136-.35v-6.963l-3.9-13.141a.471.471 0 0 1 .076-.423.45.45 0 0 1 .38-.183h2.51a.447.447 0 0 1 .453.333l2.147 7.266 2.177-7.266a.45.45 0 0 1 .453-.333h2.51a.483.483 0 0 1 .393.183.463.463 0 0 1 .087.427z" transform="translate(-1775.021 -228.522)"/><path id="Path_7200" data-name="Path 7200" class="cls-2" d="M2371.166 236.5h2.51a.428.428 0 0 1 .483.486v20.224a.429.429 0 0 1-.483.486h-2.39a.437.437 0 0 1-.316-.137.475.475 0 0 1-.137-.349v-10.082l-1.908 6.872a.45.45 0 0 1-.453.333h-2.6a.466.466 0 0 1-.483-.333l-1.874-6.873v10.083a.429.429 0 0 1-.483.486h-2.39a.436.436 0 0 1-.316-.137.474.474 0 0 1-.136-.349v-20.224a.484.484 0 0 1 .136-.349.436.436 0 0 1 .316-.136h2.51a.419.419 0 0 1 .452.333l3.568 11.414 3.538-11.414a.417.417 0 0 1 .456-.334z" transform="translate(-2281.631 -228.628)"/><path id="Path_7201" data-name="Path 7201" class="cls-2" d="M2852.492 257.11v-20.224a.483.483 0 0 1 .136-.349.436.436 0 0 1 .316-.136h2.39a.428.428 0 0 1 .483.486v20.223a.43.43 0 0 1-.483.486h-2.39a.435.435 0 0 1-.316-.136.474.474 0 0 1-.136-.35z" transform="translate(-2757.545 -228.532)"/><path id="Path_7202" data-name="Path 7202" class="cls-2" d="M3020.088 257.685h-2.51a.415.415 0 0 1-.453-.3l-2.237-5.965-2.237 5.965a.4.4 0 0 1-.423.3h-2.539a.441.441 0 0 1-.38-.2.455.455 0 0 1-.046-.439l3.691-9.929-3.721-9.992a.516.516 0 0 1 .076-.439.437.437 0 0 1 .38-.2h2.539a.4.4 0 0 1 .423.3l2.237 5.965 2.207-5.965a.419.419 0 0 1 .453-.3h2.54a.477.477 0 0 1 .393.2.435.435 0 0 1 .06.439l-3.721 9.992 3.721 9.929a.522.522 0 0 1-.076.439.428.428 0 0 1-.377.2z" transform="translate(-2909.052 -228.621)"/><path id="Path_7203" data-name="Path 7203" class="cls-2" d="M3393.5 236.886v2.36a.429.429 0 0 1-.483.486h-2.9v17.378a.429.429 0 0 1-.482.486h-2.36a.427.427 0 0 1-.483-.486v-17.378h-2.9a.427.427 0 0 1-.483-.486v-2.36a.428.428 0 0 1 .483-.486h9.134a.43.43 0 0 1 .474.486z" transform="translate(-3270.782 -228.532)"/><path id="Path_7204" data-name="Path 7204" class="cls-2" d="M3676.841 257.2a.453.453 0 0 1-.483.393h-2.39a.5.5 0 0 1-.393-.166.38.38 0 0 1-.09-.379l4.054-20.254a.412.412 0 0 1 .453-.393h2.54a.48.48 0 0 1 .482.393l4.054 20.254a.383.383 0 0 1-.089.379.51.51 0 0 1-.393.166h-2.39a.428.428 0 0 1-.483-.393l-2.449-13.9z" transform="translate(-3551.195 -228.532)"/><path id="Path_7205" data-name="Path 7205" class="cls-2" d="M4076.634 257.6h-2.39a.435.435 0 0 1-.316-.136.473.473 0 0 1-.137-.35v-20.228a.484.484 0 0 1 .137-.35.436.436 0 0 1 .316-.136h4.567a5.605 5.605 0 0 1 2.117.379 4.38 4.38 0 0 1 1.575 1.059 4.646 4.646 0 0 1 .982 1.651 6.28 6.28 0 0 1 .349 2.12v2.3a5.352 5.352 0 0 1-1.315 3.785 4.8 4.8 0 0 1-3.7 1.421h-1.694v7.992a.431.431 0 0 1-.491.493zm.486-11.81h1.694a1.6 1.6 0 0 0 1.332-.469 2.276 2.276 0 0 0 .363-1.408v-2.3a2.093 2.093 0 0 0-.452-1.514 1.787 1.787 0 0 0-1.242-.363h-1.694z" transform="translate(-3938.194 -228.532)"/><path id="Path_7206" data-name="Path 7206" class="cls-2" d="M4438.318 239.829h-4.989v5.329h3.3a.436.436 0 0 1 .316.136.474.474 0 0 1 .137.35V248a.485.485 0 0 1-.137.35.424.424 0 0 1-.316.136h-3.3v5.875h4.989a.434.434 0 0 1 .316.136.473.473 0 0 1 .137.349v2.36a.484.484 0 0 1-.137.349.434.434 0 0 1-.316.136h-7.835a.427.427 0 0 1-.482-.486v-20.219a.428.428 0 0 1 .482-.486h7.835a.434.434 0 0 1 .316.136.473.473 0 0 1 .137.349v2.36a.484.484 0 0 1-.137.35.426.426 0 0 1-.316.134z" transform="translate(-4282.546 -228.628)"/><path id="Path_7207" data-name="Path 7207" class="cls-2" d="M4741.875 256.981l5.323-17.225h-5.053a.438.438 0 0 1-.316-.136.476.476 0 0 1-.136-.35v-2.393a.485.485 0 0 1 .136-.35.438.438 0 0 1 .316-.136h8.954a.45.45 0 0 1 .38.183.483.483 0 0 1 .077.423l-5.293 17.225h2.147a3.128 3.128 0 0 1 1.3.273 3.582 3.582 0 0 1 1.059.726 3.5 3.5 0 0 1 .725 1.058 3.113 3.113 0 0 1 .273 1.3h-9.437a.467.467 0 0 1-.456-.6z" transform="translate(-4583.862 -228.522)"/></g></g></g></svg>