<svg id="Laag_1" data-name="Laag 1" xmlns="http://www.w3.org/2000/svg" xmlns:xlink="http://www.w3.org/1999/xlink" viewBox="0 0 255.14 193.29"><defs><style>.cls-1,.cls-2{fill:none;}.cls-1{clip-rule:evenodd;}.cls-3{clip-path:url(#clip-path);}.cls-4{clip-path:url(#clip-path-2);}.cls-5,.cls-6{fill:#252d2d;}.cls-6{font-size:32px;font-family:Fresh Marker;}</style><clipPath id="clip-path"><path class="cls-1" d="M78.3,50.9C84.06,65.35,89,75.41,104.19,82.23a3.61,3.61,0,0,0,4.17-.53c5.44-5.13,8.43-13.39,12.08-19.87L131.65,41.9c3.33,11.37,4.88,15,10.19,25.63,2.26,4.52,5.48,14,12,13.88,4.49-.07,6.75-4.39,9.2-7.7,8-10.77,14.42-19.21,15.78-21.37l-4,29.65c-0.73,5.44-.09,16.52-2.84,21.19-4.13,7-11.81,5-18.55,5.23q-27.12.8-78.57,2.85l-0.36,6.11q32.56-.75,50.06-1.27l26.25-.78c6.31-.19,15.89,1.36,21.91-0.75,7.64-2.67,6.25-12.31,7.2-19.35l7.47-55.63c0.5-3.76-4.67-4.08-6.41-1.73L169.06,54.07c-2.16,2.92-8.64,15.27-11.95,16.19-11.82,3.29-19-29.44-21.39-37.6a3.49,3.49,0,0,0-6.28-.82l-11.2,19.89c-2.17,3.85-8.6,19.7-13,20.69-9.61,2.14-23.27-28-26.32-35.68-1.4-3.51-6.53-3.13-6.75.91q-2.22,39.63-4.43,79.25c-0.24,4.4,6.63,4.38,6.88,0"/></clipPath><clipPath id="clip-path-2"><rect class="cls-2" x="-79.31" y="-292.8" width="414" height="736"/></clipPath></defs><title>logoICON</title><g class="cls-3"><g class="cls-4"><rect class="cls-5" x="62.69" y="25.2" width="129.76" height="100"/></g></g><rect class="cls-5" x="74.04" y="111.28" width="0.86" height="6.1"/><text class="cls-6" transform="translate(67.69 151.79)">ICON</text><text class="cls-6" transform="translate(145.61 151.79)">tV</text></svg>