<?xml version="1.0" encoding="utf-8"?>
<!-- Generator: Adobe Illustrator 23.1.1, SVG Export Plug-In . SVG Version: 6.00 Build 0)  -->
<svg version="1.1" id="Laag_1" xmlns="http://www.w3.org/2000/svg" xmlns:xlink="http://www.w3.org/1999/xlink" x="0px" y="0px"
	 viewBox="0 0 262.5 213.89" style="enable-background:new 0 0 262.5 213.89;" xml:space="preserve">
<style type="text/css">
	.st0{fill:#FFFFFF;}
</style>
<g id="iw0te8.tif">
	<g>
		<path class="st0" d="M116.77,134.93c0-0.14,0-0.29,0-0.43c12.88,0,25.75,0.01,38.63-0.01c1.66,0,3.32-0.11,4.97-0.29
			c6.78-0.73,9.28-3.26,10.07-10.06c0.89-7.67,1.74-15.34,2.72-22.99c1.59-12.35,3.29-24.68,4.9-37.02
			c0.31-2.36-1.48-3.91-3.71-3.12c-1.08,0.38-2.18,1.26-2.85,2.21c-6.14,8.67-12.13,17.44-18.3,26.09c-2.9,4.06-6.49,4.4-9.7,0.61
			c-2.43-2.86-4.62-6.19-5.94-9.67c-2.72-7.19-4.71-14.65-7.2-21.94c-0.41-1.2-1.65-2.49-2.82-2.97c-1.71-0.7-2.88,0.62-3.7,2.14
			c-4.42,8.17-8.83,16.35-13.32,24.48c-1.92,3.48-3.86,6.97-6.09,10.25c-1.72,2.52-3.99,2.9-6.51,1.19
			c-1.96-1.33-3.82-2.98-5.31-4.82c-6.44-7.94-10.77-17.1-14.79-26.41c-0.81-1.88-1.8-3.51-4.17-3.07c-2.29,0.43-2.5,2.28-2.6,4.22
			c-0.75,13.52-1.57,27.04-2.32,40.56c-0.58,10.37-1.09,20.74-1.66,31.11c-0.09,1.57,0.27,3.07,1.87,3.33
			c1.13,0.18,2.93-0.15,3.5-0.93c1-1.38,2.14-1.34,3.44-1.37C89.51,135.65,103.14,135.29,116.77,134.93z M162.68,158
			c-0.28-0.01-0.56-0.02-0.85-0.03c-0.22-3.03-0.4-6.06-0.66-9.09c-0.17-2.03-0.92-3.5-3.39-3.29c-1.4,0.12-2.82-0.06-4.22,0.03
			c-4.19,0.27-8.37,0.62-12.52,0.93c-0.03,3.89,0.88,4.5,5.94,4.17c-0.06,1.07-0.11,2.13-0.19,3.18c-0.19,2.56-0.68,5.15-0.46,7.68
			c0.11,1.27,1.49,2.44,2.29,3.65c0.4-1.07,1.05-2.12,1.15-3.22c0.35-3.77,0.51-7.55,0.75-11.4c2.75-0.24,5.1-0.44,7.61-0.66
			c0.13,1.24,0.13,2.16,0.33,3.03c0.8,3.44,1.56,6.89,2.58,10.27c0.22,0.72,1.38,1.49,2.18,1.58c0.46,0.05,1.19-1.16,1.57-1.93
			c0.58-1.18,1-2.45,1.42-3.71c1-2.98,2.2-5.93,2.82-8.99c0.22-1.07-1.04-2.43-1.63-3.66c-0.57,0.77-1.36,1.45-1.68,2.31
			C164.61,151.87,163.68,154.95,162.68,158z M117.82,144.53c-0.31,2.09-0.49,4.12-0.93,6.1c-0.8,3.55-1.78,7.06-2.64,10.6
			c-0.44,1.8,0.25,3.22,2,3.64c0.4,0.1,1.48-1.38,1.77-2.29c0.78-2.43,1.3-4.94,2-7.7c2.73,4.24,3.37,9.34,7.71,12.42
			c0.44-0.83,0.8-1.23,0.86-1.67c0.84-5.9,1.75-11.79,2.35-17.71c0.09-0.93-1.29-2-1.99-3.01c-0.38,0.12-0.77,0.24-1.15,0.36
			c-0.59,4.77-1.18,9.55-1.76,14.32c-0.25,0.05-0.5,0.1-0.75,0.15c-1.27-3.72-2.55-7.44-3.81-11.16
			C120.89,146.85,120.39,145.07,117.82,144.53z M101.73,148.09c-3.58,2.2-5.36,5.64-5.97,9.75c-0.55,3.73,1.81,7.35,4.95,7.76
			c4.53,0.59,9.55-2.59,10.83-6.98c2.11-7.24-3.79-12.55-11.36-14.72C100.77,145.47,101.21,146.68,101.73,148.09z M88.27,150.5
			c0.62,0.84,0.75,1.17,1,1.33c0.66,0.43,1.36,0.79,2.04,1.18c0.21-0.82,0.74-1.73,0.56-2.45c-0.33-1.33-0.89-2.7-1.71-3.78
			c-1.46-1.91-3.03-1.9-4.5-0.03c-1.73,2.22-3.38,4.52-4.89,6.89c-1.56,2.45-2.14,5.17-1.69,8.09c0.53,3.52,2.81,5.04,6.15,3.81
			c2.39-0.88,4.66-2.11,6.97-3.23c1.6-0.77,1.85-1.99,0.99-3.49c-0.87-1.53-1.92-1.68-3.51-0.85c-2.16,1.12-4.49,1.92-6.75,2.85
			c-0.21-0.21-0.42-0.42-0.64-0.63C84.21,157.1,86.12,154,88.27,150.5z M73.85,157.99c0-1.69-0.08-4.34,0.06-6.98
			c0.03-0.59,0.76-1.21,1.29-1.69c0.68-0.62,2.15-1.2,2.09-1.65c-0.19-1.57-0.94-3.11-2.93-3.06c-1.48,0.03-3.01,0.13-4.42,0.52
			c-1.02,0.28-2.69,1.15-2.66,1.65c0.09,1.14,1.03,2.23,1.66,3.32c0.37,0.63,1.14,1.21,1.16,1.83c0.1,2.57,0.07,5.14-0.09,7.71
			c-0.04,0.64-0.65,1.32-1.16,1.83c-0.66,0.66-2.18,1.51-2.1,1.7c0.57,1.2,1.36,2.35,2.3,3.28c0.57,0.57,1.59,0.66,2.34,1.09
			c1.31,0.75,1.92,0.44,2.24-1.05c0.14-0.64,0.86-1.15,1.32-1.72c0.81-0.99,2.47-2.27,2.26-2.92
			C76.79,160.54,75.33,159.57,73.85,157.99z"/>
		<path d="M116.77,134.93c-13.63,0.36-27.26,0.72-40.88,1.08c-1.3,0.03-2.44-0.01-3.44,1.37c-0.57,0.78-2.37,1.11-3.5,0.93
			c-1.61-0.26-1.96-1.76-1.87-3.33c0.57-10.37,1.08-20.74,1.66-31.11c0.76-13.52,1.57-27.04,2.32-40.56
			c0.11-1.94,0.32-3.79,2.6-4.22c2.37-0.45,3.36,1.19,4.17,3.07c4.02,9.31,8.35,18.47,14.79,26.41c1.49,1.84,3.35,3.49,5.31,4.82
			c2.52,1.71,4.79,1.33,6.51-1.19c2.24-3.28,4.17-6.77,6.09-10.25c4.49-8.13,8.9-16.31,13.32-24.48c0.82-1.52,1.99-2.84,3.7-2.14
			c1.17,0.48,2.41,1.77,2.82,2.97c2.49,7.28,4.48,14.75,7.2,21.94c1.32,3.49,3.51,6.81,5.94,9.67c3.21,3.79,6.8,3.45,9.7-0.61
			c6.17-8.65,12.16-17.42,18.3-26.09c0.67-0.95,1.76-1.83,2.85-2.21c2.23-0.79,4.01,0.76,3.71,3.12
			c-1.61,12.34-3.31,24.67-4.9,37.02c-0.98,7.65-1.83,15.33-2.72,22.99c-0.79,6.8-3.29,9.33-10.07,10.06
			c-1.65,0.18-3.31,0.29-4.97,0.29c-12.88,0.02-25.75,0.01-38.63,0.01C116.77,134.64,116.77,134.78,116.77,134.93z M170,76.88
			c-0.17-0.03-0.35-0.06-0.52-0.09c-2.33,3.12-4.65,6.24-6.98,9.36c-3.38,4.53-6.61,9.17-10.17,13.54
			c-3.37,4.15-7.86,3.93-11.17-0.26c-0.72-0.91-1.47-1.84-1.94-2.89c-3.94-8.93-7.83-17.89-11.71-26.85
			c-0.45-1.03-0.72-2.14-1.26-3.78c-5.07,9.36-9.8,18.3-14.75,27.11c-1.81,3.23-4.06,6.23-6.23,9.25c-1.18,1.65-2.96,1.96-4.65,0.92
			c-3.72-2.3-7.64-4.42-10.94-7.24c-5.63-4.81-8.57-11.51-11.42-18.17c-0.32-0.74-0.67-1.47-1-2.2c-0.16,0.07-0.32,0.13-0.48,0.2
			c-1.01,18.04-2.03,36.08-3.05,54.38c1.06,0,1.96,0.02,2.84,0c26.08-0.83,52.16-1.66,78.23-2.51c6.35-0.21,9.86-3.57,10.58-10.26
			c0.9-8.33,1.62-16.68,2.54-25.01C168.5,87.2,169.3,82.04,170,76.88z"/>
		<path d="M162.68,158c1-3.05,1.93-6.13,3.03-9.14c0.31-0.86,1.11-1.55,1.68-2.31c0.58,1.23,1.84,2.6,1.63,3.66
			c-0.62,3.06-1.82,6.01-2.82,8.99c-0.42,1.25-0.84,2.52-1.42,3.71c-0.37,0.76-1.11,1.98-1.57,1.93c-0.8-0.09-1.96-0.86-2.18-1.58
			c-1.01-3.38-1.78-6.83-2.58-10.27c-0.2-0.87-0.2-1.79-0.33-3.03c-2.51,0.22-4.86,0.42-7.61,0.66c-0.24,3.85-0.4,7.63-0.75,11.4
			c-0.1,1.1-0.75,2.15-1.15,3.22c-0.8-1.21-2.19-2.38-2.29-3.65c-0.21-2.53,0.28-5.12,0.46-7.68c0.08-1.06,0.12-2.11,0.19-3.18
			c-5.05,0.33-5.96-0.27-5.94-4.17c4.15-0.31,8.33-0.65,12.52-0.93c1.4-0.09,2.82,0.09,4.22-0.03c2.47-0.21,3.22,1.26,3.39,3.29
			c0.26,3.03,0.44,6.06,0.66,9.09C162.12,157.98,162.4,157.99,162.68,158z"/>
		<path d="M117.82,144.53c2.57,0.54,3.07,2.32,3.65,4.04c1.26,3.72,2.54,7.44,3.81,11.16c0.25-0.05,0.5-0.1,0.75-0.15
			c0.59-4.77,1.18-9.55,1.76-14.32c0.38-0.12,0.77-0.24,1.15-0.36c0.7,1.01,2.08,2.08,1.99,3.01c-0.59,5.92-1.5,11.81-2.35,17.71
			c-0.06,0.44-0.42,0.84-0.86,1.67c-4.34-3.08-4.99-8.18-7.71-12.42c-0.7,2.76-1.22,5.27-2,7.7c-0.29,0.91-1.37,2.38-1.77,2.29
			c-1.75-0.42-2.44-1.85-2-3.64c0.86-3.54,1.84-7.05,2.64-10.6C117.33,148.65,117.51,146.62,117.82,144.53z"/>
		<path d="M101.73,148.09c-0.52-1.42-0.96-2.62-1.54-4.19c7.57,2.17,13.47,7.48,11.36,14.72c-1.28,4.39-6.3,7.57-10.83,6.98
			c-3.15-0.41-5.51-4.04-4.95-7.76C96.38,153.73,98.15,150.29,101.73,148.09z M106.75,150.37c-0.69,0.38-1.24,0.75-1.83,1.01
			c-3.62,1.58-5.22,4.58-5.97,8.24c-0.38,1.87,0.37,2.44,2.12,2.11c3.18-0.59,5.72-2.09,7.23-5.04
			C109.66,154.04,109.29,152.54,106.75,150.37z"/>
		<path d="M88.27,150.5c-2.15,3.5-4.06,6.6-5.97,9.7c0.21,0.21,0.42,0.42,0.64,0.63c2.26-0.93,4.59-1.73,6.75-2.85
			c1.59-0.83,2.64-0.68,3.51,0.85c0.86,1.5,0.61,2.72-0.99,3.49c-2.3,1.12-4.57,2.34-6.97,3.23c-3.35,1.23-5.62-0.29-6.15-3.81
			c-0.44-2.92,0.13-5.65,1.69-8.09c1.51-2.37,3.15-4.67,4.89-6.89c1.47-1.88,3.04-1.88,4.5,0.03c0.82,1.08,1.38,2.45,1.71,3.78
			c0.18,0.72-0.35,1.63-0.56,2.45c-0.68-0.39-1.39-0.75-2.04-1.18C89.02,151.67,88.89,151.34,88.27,150.5z"/>
		<path d="M73.85,157.99c1.48,1.58,2.94,2.55,3.37,3.86c0.22,0.65-1.45,1.92-2.26,2.92c-0.46,0.57-1.18,1.08-1.32,1.72
			c-0.33,1.49-0.93,1.8-2.24,1.05c-0.75-0.43-1.77-0.52-2.34-1.09c-0.94-0.94-1.73-2.09-2.3-3.28c-0.09-0.18,1.44-1.03,2.1-1.7
			c0.5-0.51,1.12-1.19,1.16-1.83c0.16-2.56,0.2-5.14,0.09-7.71c-0.03-0.62-0.79-1.2-1.16-1.83c-0.63-1.09-1.57-2.18-1.66-3.32
			c-0.04-0.5,1.64-1.38,2.66-1.65c1.42-0.39,2.94-0.48,4.42-0.52c1.99-0.05,2.74,1.49,2.93,3.06c0.05,0.45-1.42,1.03-2.09,1.65
			c-0.52,0.48-1.26,1.1-1.29,1.69C73.78,153.65,73.85,156.3,73.85,157.99z"/>
		<path class="st0" d="M170,76.88c-0.7,5.17-1.49,10.32-2.07,15.5c-0.92,8.33-1.64,16.68-2.54,25.01
			c-0.72,6.69-4.23,10.05-10.58,10.26c-26.08,0.85-52.16,1.68-78.23,2.51c-0.89,0.03-1.78,0-2.84,0c1.03-18.3,2.04-36.34,3.05-54.38
			c0.16-0.07,0.32-0.13,0.48-0.2c0.33,0.73,0.68,1.46,1,2.2c2.85,6.66,5.79,13.37,11.42,18.17c3.3,2.82,7.22,4.94,10.94,7.24
			c1.69,1.04,3.47,0.73,4.65-0.92c2.17-3.02,4.41-6.02,6.23-9.25c4.94-8.82,9.67-17.75,14.75-27.11c0.54,1.64,0.82,2.74,1.26,3.78
			c3.88,8.96,7.77,17.92,11.71,26.85c0.46,1.05,1.22,1.98,1.94,2.89c3.31,4.19,7.8,4.41,11.17,0.26c3.56-4.38,6.79-9.02,10.17-13.54
			c2.33-3.12,4.65-6.24,6.98-9.36C169.65,76.81,169.82,76.85,170,76.88z"/>
		<path class="st0" d="M106.75,150.37c2.54,2.17,2.92,3.68,1.56,6.33c-1.51,2.94-4.06,4.45-7.23,5.04
			c-1.76,0.33-2.51-0.25-2.12-2.11c0.75-3.66,2.35-6.67,5.97-8.24C105.51,151.12,106.05,150.75,106.75,150.37z"/>
	</g>
</g>
</svg>
