<?xml version="1.0" encoding="UTF-8" standalone="no"?><!DOCTYPE svg PUBLIC "-//W3C//DTD SVG 1.1//EN" "http://www.w3.org/Graphics/SVG/1.1/DTD/svg11.dtd"><svg width="100%" height="100%" viewBox="0 0 267 59" version="1.1" xmlns="http://www.w3.org/2000/svg" xmlns:xlink="http://www.w3.org/1999/xlink" xml:space="preserve" xmlns:serif="http://www.serif.com/" style="fill-rule:evenodd;clip-rule:evenodd;stroke-linejoin:round;stroke-miterlimit:1.41421;"><g id="Logo"><g id="Text"><g id="LogoName"><path d="M64.555,33.624c0.959,0.31 1.701,0.797 2.225,1.461c0.524,0.664 0.786,1.475 0.786,2.435c0,1.549 -0.484,2.707 -1.45,3.475c-0.967,0.767 -2.586,1.151 -4.859,1.151l-6.419,0l0,-16.778l6.419,0c2.051,0 3.505,0.376 4.361,1.128c0.856,0.753 1.283,1.875 1.283,3.365c0,0.9 -0.188,1.664 -0.564,2.291c-0.376,0.627 -0.97,1.118 -1.782,1.472Zm-6.64,-1.129l3.342,0c1.682,0 2.523,-0.789 2.523,-2.368c0,-0.812 -0.191,-1.395 -0.575,-1.749c-0.384,-0.354 -1.033,-0.531 -1.948,-0.531l-3.342,0l0,4.648Zm6.53,4.803c0,-0.811 -0.266,-1.402 -0.797,-1.771c-0.532,-0.368 -1.328,-0.553 -2.391,-0.553l-3.342,0l0,4.693l3.342,0c1.166,0 1.989,-0.188 2.468,-0.565c0.48,-0.376 0.72,-0.977 0.72,-1.804Z" style="fill:#fff;fill-rule:nonzero;"/><path d="M72.989,36.634c0.236,2.243 1.475,3.365 3.718,3.365c0.576,0 1.137,-0.074 1.683,-0.222c0.546,-0.147 1.158,-0.383 1.837,-0.708l0.797,2.346c-0.709,0.399 -1.432,0.683 -2.17,0.853c-0.737,0.169 -1.571,0.254 -2.501,0.254c-1.372,0 -2.545,-0.277 -3.519,-0.83c-0.974,-0.553 -1.708,-1.324 -2.203,-2.313c-0.494,-0.989 -0.741,-2.14 -0.741,-3.453c0,-1.372 0.258,-2.549 0.774,-3.531c0.517,-0.981 1.218,-1.722 2.103,-2.224c0.886,-0.502 1.874,-0.753 2.966,-0.753c1.727,0 3.081,0.513 4.062,1.539c0.981,1.025 1.479,2.527 1.494,4.504l0,1.173l-8.3,0Zm2.744,-4.692c-1.446,0 -2.324,0.796 -2.634,2.39l5.069,0c-0.074,-0.826 -0.31,-1.431 -0.708,-1.815c-0.399,-0.384 -0.974,-0.575 -1.727,-0.575Z" style="fill:#fff;fill-rule:nonzero;"/><path d="M88.085,42.522c-0.96,0 -1.815,-0.081 -2.568,-0.243c-0.753,-0.163 -1.535,-0.436 -2.346,-0.819l0,-2.723c0.782,0.443 1.575,0.764 2.379,0.963c0.804,0.199 1.649,0.299 2.535,0.299c1.254,0 1.881,-0.45 1.881,-1.35c0,-0.384 -0.107,-0.668 -0.321,-0.853c-0.214,-0.184 -0.55,-0.335 -1.007,-0.453l-1.815,-0.399c-1.136,-0.251 -1.996,-0.66 -2.579,-1.228c-0.583,-0.569 -0.874,-1.384 -0.874,-2.446c0,-2.568 1.601,-3.852 4.803,-3.852c1.402,0 2.811,0.266 4.228,0.797l0,2.612c-0.546,-0.266 -1.173,-0.48 -1.882,-0.642c-0.708,-0.162 -1.446,-0.243 -2.213,-0.243c-1.284,0 -1.926,0.383 -1.926,1.151c0,0.354 0.107,0.612 0.321,0.774c0.214,0.163 0.535,0.295 0.963,0.399l1.793,0.398c1.195,0.281 2.081,0.701 2.656,1.262c0.576,0.561 0.863,1.424 0.863,2.59c0,1.313 -0.442,2.309 -1.328,2.988c-0.885,0.679 -2.073,1.018 -3.563,1.018Z" style="fill:#fff;fill-rule:nonzero;"/><path d="M99.373,32.738l0,5.601c0,0.531 0.089,0.9 0.266,1.106c0.177,0.207 0.502,0.31 0.974,0.31c0.472,0 0.922,-0.059 1.35,-0.177l0,2.59c-0.841,0.177 -1.534,0.266 -2.08,0.266c-1.225,0 -2.111,-0.259 -2.657,-0.775c-0.546,-0.517 -0.819,-1.313 -0.819,-2.391l0,-6.53l-1.638,0l0,-2.678l1.638,0l0,-3.322l2.966,0l0,3.322l2.834,0l0,2.678l-2.834,0Z" style="fill:#fff;fill-rule:nonzero;"/><path d="M107.121,36.634c0.236,2.243 1.475,3.365 3.718,3.365c0.576,0 1.137,-0.074 1.683,-0.222c0.546,-0.147 1.158,-0.383 1.837,-0.708l0.797,2.346c-0.709,0.399 -1.432,0.683 -2.17,0.853c-0.737,0.169 -1.571,0.254 -2.501,0.254c-1.372,0 -2.545,-0.277 -3.519,-0.83c-0.974,-0.553 -1.708,-1.324 -2.203,-2.313c-0.494,-0.989 -0.741,-2.14 -0.741,-3.453c0,-1.372 0.258,-2.549 0.775,-3.531c0.516,-0.981 1.217,-1.722 2.102,-2.224c0.886,-0.502 1.874,-0.753 2.966,-0.753c1.727,0 3.081,0.513 4.062,1.539c0.982,1.025 1.48,2.527 1.494,4.504l0,1.173l-8.3,0Zm2.744,-4.692c-1.446,0 -2.324,0.796 -2.634,2.39l5.069,0c-0.073,-0.826 -0.31,-1.431 -0.708,-1.815c-0.398,-0.384 -0.974,-0.575 -1.727,-0.575Z" style="fill:#fff;fill-rule:nonzero;"/><path d="M121.486,42.434c-1.21,0 -2.095,-0.255 -2.656,-0.764c-0.561,-0.509 -0.841,-1.295 -0.841,-2.357l0,-13.945l2.966,0l0,12.971c0,0.531 0.089,0.9 0.266,1.106c0.177,0.207 0.494,0.31 0.951,0.31c0.458,0 0.864,-0.044 1.218,-0.133l0,2.568c-0.694,0.162 -1.328,0.244 -1.904,0.244Z" style="fill:#fff;fill-rule:nonzero;"/><path d="M139.681,25.368l0,16.778l-3.077,0l0,-7.105l-7.525,0l0,7.105l-3.077,0l0,-16.778l3.077,0l0,7.016l7.525,0l0,-7.016l3.077,0Z" style="fill:#ea5c24;fill-rule:nonzero;"/><path d="M147.827,29.772c1.461,0 2.571,0.218 3.331,0.653c0.76,0.436 1.266,1.019 1.516,1.749c0.251,0.73 0.377,1.649 0.377,2.756l0,7.216l-2.966,0l0,-1.129c-0.546,0.502 -1.081,0.863 -1.605,1.085c-0.524,0.221 -1.096,0.332 -1.716,0.332c-1.298,0 -2.342,-0.373 -3.132,-1.118c-0.789,-0.745 -1.184,-1.767 -1.184,-3.066c0,-1.328 0.41,-2.357 1.229,-3.088c0.819,-0.73 1.944,-1.095 3.375,-1.095c1.166,0 2.177,0.228 3.033,0.686c-0.015,-0.561 -0.085,-1.011 -0.211,-1.35c-0.125,-0.34 -0.372,-0.602 -0.741,-0.786c-0.369,-0.185 -0.915,-0.277 -1.638,-0.277l-2.081,0l0,-2.568l2.413,0Zm-0.531,10.293c0.9,0 1.829,-0.413 2.789,-1.239l0,-1.948c-0.782,-0.399 -1.587,-0.598 -2.413,-0.598c-0.649,0 -1.181,0.151 -1.594,0.454c-0.413,0.302 -0.62,0.793 -0.62,1.472c0,0.664 0.174,1.14 0.521,1.428c0.346,0.287 0.785,0.431 1.317,0.431Z" style="fill:#ea5c24;fill-rule:nonzero;"/><path d="M159.758,42.434c-1.21,0 -2.096,-0.255 -2.657,-0.764c-0.56,-0.509 -0.841,-1.295 -0.841,-2.357l0,-13.945l2.966,0l0,12.971c0,0.531 0.089,0.9 0.266,1.106c0.177,0.207 0.494,0.31 0.952,0.31c0.457,0 0.863,-0.044 1.217,-0.133l0,2.568c-0.693,0.162 -1.328,0.244 -1.903,0.244Z" style="fill:#ea5c24;fill-rule:nonzero;"/><path d="M168.302,29.772c1.461,0 2.571,0.218 3.331,0.653c0.76,0.436 1.265,1.019 1.516,1.749c0.251,0.73 0.377,1.649 0.377,2.756l0,7.216l-2.966,0l0,-1.129c-0.546,0.502 -1.081,0.863 -1.605,1.085c-0.524,0.221 -1.096,0.332 -1.716,0.332c-1.298,0 -2.342,-0.373 -3.132,-1.118c-0.789,-0.745 -1.184,-1.767 -1.184,-3.066c0,-1.328 0.409,-2.357 1.228,-3.088c0.819,-0.73 1.945,-1.095 3.376,-1.095c1.166,0 2.177,0.228 3.033,0.686c-0.015,-0.561 -0.085,-1.011 -0.211,-1.35c-0.125,-0.34 -0.372,-0.602 -0.741,-0.786c-0.369,-0.185 -0.915,-0.277 -1.638,-0.277l-2.081,0l0,-2.568l2.413,0Zm-0.532,10.293c0.901,0 1.83,-0.413 2.79,-1.239l0,-1.948c-0.783,-0.399 -1.587,-0.598 -2.413,-0.598c-0.65,0 -1.181,0.151 -1.594,0.454c-0.413,0.302 -0.62,0.793 -0.62,1.472c0,0.664 0.174,1.14 0.52,1.428c0.347,0.287 0.786,0.431 1.317,0.431Z" style="fill:#ea5c24;fill-rule:nonzero;"/><path d="M180.232,42.434c-1.21,0 -2.095,-0.255 -2.656,-0.764c-0.56,-0.509 -0.841,-1.295 -0.841,-2.357l0,-13.945l2.966,0l0,12.971c0,0.531 0.089,0.9 0.266,1.106c0.177,0.207 0.494,0.31 0.952,0.31c0.457,0 0.863,-0.044 1.217,-0.133l0,2.568c-0.693,0.162 -1.328,0.244 -1.904,0.244Z" style="fill:#ea5c24;fill-rule:nonzero;"/><path d="M187.825,28.046l0,4.692l6.463,0l0,2.679l-6.463,0l0,6.729l-3.077,0l0,-16.778l10.647,0l0,2.678l-7.57,0Z" style="fill:#fff;fill-rule:nonzero;"/><path d="M203.74,42.522c-1.373,0 -2.538,-0.288 -3.498,-0.863c-0.959,-0.576 -1.678,-1.361 -2.158,-2.358c-0.479,-0.996 -0.719,-2.113 -0.719,-3.353c0,-1.225 0.24,-2.332 0.719,-3.32c0.48,-0.989 1.199,-1.771 2.158,-2.347c0.96,-0.575 2.125,-0.863 3.498,-0.863c1.357,0 2.512,0.288 3.464,0.863c0.952,0.576 1.667,1.358 2.147,2.347c0.48,0.988 0.719,2.095 0.719,3.32c0,1.24 -0.239,2.357 -0.719,3.353c-0.48,0.997 -1.195,1.782 -2.147,2.358c-0.952,0.575 -2.107,0.863 -3.464,0.863Zm0,-2.59c1.048,0 1.852,-0.358 2.413,-1.073c0.56,-0.716 0.841,-1.686 0.841,-2.911c0,-1.225 -0.281,-2.191 -0.841,-2.9c-0.561,-0.708 -1.365,-1.062 -2.413,-1.062c-1.063,0 -1.878,0.354 -2.446,1.062c-0.568,0.709 -0.852,1.675 -0.852,2.9c0,1.225 0.284,2.195 0.852,2.911c0.568,0.715 1.383,1.073 2.446,1.073Z" style="fill:#fff;fill-rule:nonzero;"/><path d="M218.482,42.522c-1.373,0 -2.538,-0.288 -3.498,-0.863c-0.959,-0.576 -1.678,-1.361 -2.158,-2.358c-0.479,-0.996 -0.719,-2.113 -0.719,-3.353c0,-1.225 0.24,-2.332 0.719,-3.32c0.48,-0.989 1.199,-1.771 2.158,-2.347c0.96,-0.575 2.125,-0.863 3.498,-0.863c1.357,0 2.512,0.288 3.464,0.863c0.952,0.576 1.667,1.358 2.147,2.347c0.479,0.988 0.719,2.095 0.719,3.32c0,1.24 -0.24,2.357 -0.719,3.353c-0.48,0.997 -1.195,1.782 -2.147,2.358c-0.952,0.575 -2.107,0.863 -3.464,0.863Zm0,-2.59c1.047,0 1.852,-0.358 2.412,-1.073c0.561,-0.716 0.842,-1.686 0.842,-2.911c0,-1.225 -0.281,-2.191 -0.842,-2.9c-0.56,-0.708 -1.365,-1.062 -2.412,-1.062c-1.063,0 -1.878,0.354 -2.446,1.062c-0.568,0.709 -0.852,1.675 -0.852,2.9c0,1.225 0.284,2.195 0.852,2.911c0.568,0.715 1.383,1.073 2.446,1.073Z" style="fill:#fff;fill-rule:nonzero;"/><path d="M238.846,25.368l0,16.778l-2.966,0l0,-0.974c-1.122,0.9 -2.273,1.35 -3.453,1.35c-1.683,0 -3.033,-0.561 -4.051,-1.682c-1.018,-1.122 -1.527,-2.752 -1.527,-4.892c0,-1.417 0.236,-2.616 0.708,-3.597c0.472,-0.981 1.129,-1.715 1.97,-2.202c0.841,-0.487 1.808,-0.731 2.9,-0.731c1.195,0 2.346,0.443 3.453,1.328l0,-5.378l2.966,0Zm-5.844,14.476c0.974,0 1.933,-0.377 2.878,-1.129l0,-5.512c-0.974,-0.752 -1.933,-1.129 -2.878,-1.129c-1.018,0 -1.785,0.332 -2.302,0.996c-0.516,0.665 -0.775,1.624 -0.775,2.878c0,1.284 0.259,2.254 0.775,2.911c0.517,0.656 1.284,0.985 2.302,0.985Z" style="fill:#fff;fill-rule:nonzero;"/><rect x="243.051" y="40.297" width="1.417" height="1.849" style="fill:#fff;fill-rule:nonzero;"/><path d="M254.163,29.795c1.432,0 2.487,0.383 3.166,1.151c0.678,0.767 1.018,2.065 1.018,3.895l0,7.305l-1.196,0l0,-7.305c0,-0.959 -0.092,-1.715 -0.276,-2.269c-0.185,-0.553 -0.495,-0.955 -0.93,-1.206c-0.435,-0.251 -1.029,-0.376 -1.782,-0.376c-1.343,0 -2.626,0.575 -3.851,1.726l0,9.43l-1.196,0l0,-12.086l1.196,0l0,1.461c0.575,-0.516 1.199,-0.933 1.87,-1.251c0.672,-0.317 1.332,-0.475 1.981,-0.475Z" style="fill:#ea5c24;fill-rule:nonzero;"/><path d="M265.386,42.434c-1.004,0 -1.708,-0.189 -2.114,-0.565c-0.406,-0.376 -0.609,-1.081 -0.609,-2.114l0,-14.387l1.195,0l0,14.254c0,0.635 0.1,1.063 0.299,1.284c0.199,0.222 0.572,0.332 1.118,0.332c0.384,0 0.723,-0.029 1.018,-0.088l0,1.195c-0.295,0.059 -0.597,0.089 -0.907,0.089Z" style="fill:#ea5c24;fill-rule:nonzero;"/></g><path id="Slogan" d="M177.952,50.445l0,5.629c0,0.492 -0.063,0.908 -0.19,1.247c-0.126,0.339 -0.357,0.609 -0.693,0.808c-0.336,0.2 -0.807,0.3 -1.412,0.3c-0.393,0 -0.731,-0.027 -1.013,-0.08c-0.283,-0.053 -0.584,-0.146 -0.904,-0.28l0,-0.768c0.287,0.133 0.576,0.236 0.869,0.309c0.292,0.074 0.569,0.11 0.828,0.11c0.519,0 0.906,-0.066 1.163,-0.199c0.256,-0.133 0.422,-0.321 0.499,-0.564c0.076,-0.243 0.114,-0.571 0.114,-0.983l0,-0.789c-0.552,0.473 -1.091,0.709 -1.616,0.709c-0.479,0 -0.9,-0.108 -1.263,-0.324c-0.362,-0.217 -0.645,-0.536 -0.848,-0.959c-0.203,-0.422 -0.304,-0.933 -0.304,-1.531c0,-0.912 0.219,-1.605 0.658,-2.081c0.439,-0.476 1.025,-0.714 1.757,-0.714c0.532,0 1.071,0.233 1.616,0.699l0,-0.539l0.739,0Zm-12.555,5.648c-0.572,0 -1.056,-0.128 -1.452,-0.384c-0.396,-0.256 -0.693,-0.604 -0.893,-1.043c-0.2,-0.439 -0.299,-0.934 -0.299,-1.487c0,-0.545 0.099,-1.038 0.299,-1.477c0.2,-0.439 0.497,-0.785 0.893,-1.038c0.396,-0.252 0.88,-0.379 1.452,-0.379c0.572,0 1.056,0.127 1.452,0.379c0.396,0.253 0.694,0.599 0.894,1.038c0.199,0.439 0.299,0.932 0.299,1.477c0,0.553 -0.1,1.048 -0.299,1.487c-0.2,0.439 -0.498,0.787 -0.894,1.043c-0.396,0.256 -0.88,0.384 -1.452,0.384Zm25.878,-2.954l0,0.02c0,0.672 0.153,1.215 0.459,1.627c0.306,0.413 0.795,0.619 1.467,0.619c0.486,0 1.025,-0.137 1.617,-0.409l0.239,0.638c-0.585,0.306 -1.217,0.459 -1.896,0.459c-0.845,0 -1.499,-0.266 -1.961,-0.798c-0.462,-0.532 -0.693,-1.241 -0.693,-2.126c0,-0.612 0.106,-1.134 0.319,-1.566c0.213,-0.433 0.504,-0.761 0.873,-0.983c0.369,-0.223 0.784,-0.335 1.243,-0.335c0.698,0 1.247,0.22 1.646,0.659c0.399,0.439 0.602,1.074 0.609,1.906l0,0.289l-3.922,0Zm-59.31,0l0,0.02c0,0.672 0.153,1.215 0.459,1.627c0.306,0.413 0.795,0.619 1.467,0.619c0.486,0 1.025,-0.137 1.617,-0.409l0.239,0.638c-0.585,0.306 -1.217,0.459 -1.896,0.459c-0.845,0 -1.499,-0.266 -1.961,-0.798c-0.462,-0.532 -0.694,-1.241 -0.694,-2.126c0,-0.612 0.107,-1.134 0.32,-1.566c0.213,-0.433 0.504,-0.761 0.873,-0.983c0.369,-0.223 0.783,-0.335 1.243,-0.335c0.698,0 1.247,0.22 1.646,0.659c0.399,0.439 0.602,1.074 0.609,1.906l0,0.289l-3.922,0Zm-15.529,0l0,0.02c0,0.672 0.153,1.215 0.459,1.627c0.306,0.413 0.795,0.619 1.467,0.619c0.486,0 1.025,-0.137 1.617,-0.409l0.24,0.638c-0.586,0.306 -1.218,0.459 -1.896,0.459c-0.845,0 -1.499,-0.266 -1.962,-0.798c-0.462,-0.532 -0.693,-1.241 -0.693,-2.126c0,-0.612 0.106,-1.134 0.319,-1.566c0.213,-0.433 0.504,-0.761 0.873,-0.983c0.37,-0.223 0.784,-0.335 1.243,-0.335c0.699,0 1.247,0.22 1.647,0.659c0.399,0.439 0.602,1.074 0.608,1.906l0,0.289l-3.922,0Zm-14.321,0l0,0.02c0,0.672 0.153,1.215 0.459,1.627c0.306,0.413 0.795,0.619 1.467,0.619c0.486,0 1.025,-0.137 1.617,-0.409l0.24,0.638c-0.586,0.306 -1.218,0.459 -1.897,0.459c-0.844,0 -1.498,-0.266 -1.961,-0.798c-0.462,-0.532 -0.693,-1.241 -0.693,-2.126c0,-0.612 0.106,-1.134 0.319,-1.566c0.213,-0.433 0.504,-0.761 0.873,-0.983c0.37,-0.223 0.784,-0.335 1.243,-0.335c0.699,0 1.247,0.22 1.647,0.659c0.399,0.439 0.602,1.074 0.608,1.906l0,0.289l-3.922,0Zm6.896,2.954c-0.386,0 -0.73,-0.033 -1.033,-0.099c-0.302,-0.067 -0.617,-0.177 -0.943,-0.33l0,-0.778c0.606,0.346 1.264,0.519 1.976,0.519c0.4,0 0.691,-0.087 0.874,-0.26c0.183,-0.173 0.274,-0.395 0.274,-0.668c0,-0.273 -0.075,-0.473 -0.225,-0.599c-0.149,-0.126 -0.387,-0.236 -0.713,-0.329l-0.579,-0.15c-0.446,-0.113 -0.8,-0.288 -1.063,-0.524c-0.263,-0.236 -0.394,-0.597 -0.394,-1.083c0,-0.466 0.153,-0.833 0.459,-1.103c0.306,-0.269 0.755,-0.404 1.347,-0.404c0.326,0 0.619,0.03 0.879,0.09c0.259,0.06 0.522,0.15 0.788,0.27l0,0.728c-0.266,-0.126 -0.522,-0.225 -0.768,-0.294c-0.247,-0.07 -0.539,-0.105 -0.879,-0.105c-0.379,0 -0.652,0.078 -0.818,0.234c-0.166,0.157 -0.249,0.348 -0.249,0.574c0,0.266 0.076,0.464 0.229,0.594c0.153,0.13 0.379,0.235 0.679,0.314l0.579,0.15c0.319,0.087 0.583,0.185 0.793,0.294c0.209,0.11 0.377,0.272 0.504,0.485c0.126,0.212 0.189,0.495 0.189,0.848c0,0.519 -0.172,0.92 -0.518,1.202c-0.346,0.283 -0.809,0.424 -1.388,0.424Zm43.482,-2.954l0,0.02c0,0.672 0.153,1.215 0.459,1.627c0.307,0.413 0.796,0.619 1.467,0.619c0.486,0 1.025,-0.137 1.617,-0.409l0.24,0.638c-0.586,0.306 -1.218,0.459 -1.896,0.459c-0.845,0 -1.499,-0.266 -1.961,-0.798c-0.463,-0.532 -0.694,-1.241 -0.694,-2.126c0,-0.612 0.106,-1.134 0.319,-1.566c0.213,-0.433 0.504,-0.761 0.874,-0.983c0.369,-0.223 0.783,-0.335 1.242,-0.335c0.699,0 1.248,0.22 1.647,0.659c0.399,0.439 0.602,1.074 0.608,1.906l0,0.289l-3.922,0Zm85.717,0l0,0.02c0,0.672 0.153,1.215 0.459,1.627c0.306,0.413 0.795,0.619 1.467,0.619c0.486,0 1.025,-0.137 1.617,-0.409l0.239,0.638c-0.585,0.306 -1.217,0.459 -1.896,0.459c-0.845,0 -1.498,-0.266 -1.961,-0.798c-0.462,-0.532 -0.693,-1.241 -0.693,-2.126c0,-0.612 0.106,-1.134 0.319,-1.566c0.213,-0.433 0.504,-0.761 0.873,-0.983c0.369,-0.223 0.784,-0.335 1.243,-0.335c0.698,0 1.247,0.22 1.646,0.659c0.4,0.439 0.602,1.074 0.609,1.906l0,0.289l-3.922,0Zm-56.995,2.954c-0.386,0 -0.73,-0.033 -1.033,-0.099c-0.302,-0.067 -0.617,-0.177 -0.943,-0.33l0,-0.778c0.606,0.346 1.264,0.519 1.976,0.519c0.399,0 0.691,-0.087 0.874,-0.26c0.182,-0.173 0.274,-0.395 0.274,-0.668c0,-0.273 -0.075,-0.473 -0.225,-0.599c-0.149,-0.126 -0.387,-0.236 -0.713,-0.329l-0.579,-0.15c-0.446,-0.113 -0.8,-0.288 -1.063,-0.524c-0.263,-0.236 -0.394,-0.597 -0.394,-1.083c0,-0.466 0.153,-0.833 0.459,-1.103c0.306,-0.269 0.755,-0.404 1.347,-0.404c0.326,0 0.619,0.03 0.879,0.09c0.259,0.06 0.522,0.15 0.788,0.27l0,0.728c-0.266,-0.126 -0.522,-0.225 -0.768,-0.294c-0.247,-0.07 -0.539,-0.105 -0.879,-0.105c-0.379,0 -0.652,0.078 -0.818,0.234c-0.166,0.157 -0.25,0.348 -0.25,0.574c0,0.266 0.077,0.464 0.23,0.594c0.153,0.13 0.379,0.235 0.679,0.314l0.578,0.15c0.32,0.087 0.584,0.185 0.794,0.294c0.209,0.11 0.377,0.272 0.504,0.485c0.126,0.212 0.189,0.495 0.189,0.848c0,0.519 -0.173,0.92 -0.519,1.202c-0.345,0.283 -0.808,0.424 -1.387,0.424Zm-34.749,-0.169l-0.739,0l0,-8.443l0.739,0l0,3.503c0.532,-0.466 1.071,-0.699 1.616,-0.699c0.732,0 1.318,0.246 1.757,0.739c0.439,0.492 0.658,1.214 0.658,2.165c0,0.945 -0.219,1.665 -0.658,2.161c-0.439,0.496 -1.025,0.743 -1.757,0.743c-0.539,0 -1.078,-0.236 -1.616,-0.708l0,0.539Zm79.648,-2.785l0,0.02c0,0.672 0.154,1.215 0.46,1.627c0.306,0.413 0.795,0.619 1.467,0.619c0.485,0 1.024,-0.137 1.616,-0.409l0.24,0.638c-0.586,0.306 -1.218,0.459 -1.896,0.459c-0.845,0 -1.499,-0.266 -1.961,-0.798c-0.463,-0.532 -0.694,-1.241 -0.694,-2.126c0,-0.612 0.106,-1.134 0.319,-1.566c0.213,-0.433 0.504,-0.761 0.874,-0.983c0.369,-0.223 0.783,-0.335 1.242,-0.335c0.699,0 1.248,0.22 1.647,0.659c0.399,0.439 0.602,1.074 0.609,1.906l0,0.289l-3.923,0Zm-130.027,2.785l-0.738,0l0,-8.443l0.738,0l0,3.503c0.533,-0.466 1.072,-0.699 1.617,-0.699c0.732,0 1.318,0.246 1.757,0.739c0.439,0.492 0.658,1.214 0.658,2.165c0,0.945 -0.219,1.665 -0.658,2.161c-0.439,0.496 -1.025,0.743 -1.757,0.743c-0.539,0 -1.078,-0.236 -1.617,-0.708l0,0.539Zm139.788,0l-0.739,0l0,-0.539c-0.539,0.472 -1.078,0.708 -1.617,0.708c-0.731,0 -1.315,-0.247 -1.751,-0.743c-0.436,-0.496 -0.654,-1.219 -0.654,-2.171c0,-0.944 0.218,-1.663 0.654,-2.155c0.436,-0.493 1.02,-0.739 1.751,-0.739c0.546,0 1.085,0.233 1.617,0.699l0,-3.503l0.739,0l0,8.443Zm30.418,0l-0.738,0l0,-0.539c-0.539,0.472 -1.078,0.708 -1.617,0.708c-0.732,0 -1.316,-0.247 -1.751,-0.743c-0.436,-0.496 -0.654,-1.219 -0.654,-2.171c0,-0.944 0.218,-1.663 0.654,-2.155c0.435,-0.493 1.019,-0.739 1.751,-0.739c0.546,0 1.084,0.233 1.617,0.699l0,-3.503l0.738,0l0,8.443Zm-203.229,-2.785l0,0.02c0,0.672 0.153,1.215 0.459,1.627c0.306,0.413 0.795,0.619 1.467,0.619c0.486,0 1.025,-0.137 1.617,-0.409l0.24,0.638c-0.586,0.306 -1.218,0.459 -1.897,0.459c-0.844,0 -1.498,-0.266 -1.961,-0.798c-0.462,-0.532 -0.693,-1.241 -0.693,-2.126c0,-0.612 0.106,-1.134 0.319,-1.566c0.213,-0.433 0.504,-0.761 0.873,-0.983c0.37,-0.223 0.784,-0.335 1.243,-0.335c0.699,0 1.247,0.22 1.647,0.659c0.399,0.439 0.602,1.074 0.608,1.906l0,0.289l-3.922,0Zm28.373,2.915c-0.479,0 -0.818,-0.094 -1.018,-0.28c-0.2,-0.186 -0.299,-0.512 -0.299,-0.978l0,-7.315l0.738,0l0,7.155c0,0.273 0.043,0.46 0.13,0.559c0.086,0.1 0.249,0.15 0.489,0.15c0.186,0 0.346,-0.013 0.479,-0.04l0,0.689c-0.193,0.04 -0.366,0.06 -0.519,0.06Zm-2.914,-0.13l-0.739,0l0,-0.569c-0.266,0.246 -0.527,0.424 -0.783,0.534c-0.256,0.11 -0.531,0.165 -0.823,0.165c-0.326,0 -0.626,-0.075 -0.899,-0.225c-0.272,-0.15 -0.49,-0.364 -0.653,-0.644c-0.163,-0.279 -0.245,-0.612 -0.245,-0.998c0,-0.598 0.186,-1.062 0.559,-1.392c0.373,-0.329 0.872,-0.494 1.497,-0.494c0.226,0 0.457,0.028 0.694,0.085c0.236,0.057 0.454,0.138 0.653,0.245c-0.006,-0.36 -0.043,-0.646 -0.109,-0.859c-0.067,-0.213 -0.197,-0.377 -0.39,-0.494c-0.193,-0.116 -0.482,-0.174 -0.868,-0.174l-0.639,0l0,-0.659l0.789,0c0.545,0 0.959,0.098 1.242,0.294c0.283,0.197 0.473,0.459 0.569,0.789c0.097,0.329 0.145,0.743 0.145,1.242l0,3.154Zm-5.25,0.13c-0.479,0 -0.818,-0.094 -1.018,-0.28c-0.199,-0.186 -0.299,-0.512 -0.299,-0.978l0,-7.315l0.739,0l0,7.155c0,0.273 0.043,0.46 0.129,0.559c0.087,0.1 0.25,0.15 0.489,0.15c0.187,0 0.346,-0.013 0.479,-0.04l0,0.689c-0.193,0.04 -0.366,0.06 -0.519,0.06Zm104.888,-5.579l1.278,0l0,0.708l-1.278,0l0,3.453c0,0.273 0.043,0.46 0.13,0.559c0.086,0.1 0.249,0.15 0.489,0.15c0.2,0 0.416,-0.027 0.649,-0.08l0,0.699c-0.246,0.06 -0.489,0.09 -0.729,0.09c-0.333,0 -0.59,-0.044 -0.773,-0.13c-0.183,-0.087 -0.313,-0.223 -0.389,-0.409c-0.077,-0.187 -0.115,-0.443 -0.115,-0.769l0,-3.563l-0.699,0l0,-0.708l0.699,0l0,-1.896l0.738,0l0,1.896Zm65.867,5.449l-0.738,0l0,-0.569c-0.267,0.246 -0.528,0.424 -0.784,0.534c-0.256,0.11 -0.53,0.165 -0.823,0.165c-0.326,0 -0.626,-0.075 -0.898,-0.225c-0.273,-0.15 -0.491,-0.364 -0.654,-0.644c-0.163,-0.279 -0.245,-0.612 -0.245,-0.998c0,-0.598 0.187,-1.062 0.559,-1.392c0.373,-0.329 0.872,-0.494 1.497,-0.494c0.226,0 0.458,0.028 0.694,0.085c0.236,0.057 0.454,0.138 0.654,0.245c-0.007,-0.36 -0.044,-0.646 -0.11,-0.859c-0.067,-0.213 -0.197,-0.377 -0.389,-0.494c-0.193,-0.116 -0.483,-0.174 -0.869,-0.174l-0.638,0l0,-0.659l0.788,0c0.546,0 0.96,0.098 1.242,0.294c0.283,0.197 0.473,0.459 0.569,0.789c0.097,0.329 0.145,0.743 0.145,1.242l0,3.154Zm-130.945,0.13c-0.479,0 -0.818,-0.094 -1.018,-0.28c-0.2,-0.186 -0.299,-0.512 -0.299,-0.978l0,-7.315l0.738,0l0,7.155c0,0.273 0.043,0.46 0.13,0.559c0.086,0.1 0.249,0.15 0.489,0.15c0.186,0 0.346,-0.013 0.479,-0.04l0,0.689c-0.193,0.04 -0.366,0.06 -0.519,0.06Zm84.758,-0.13l-0.738,0l0,-0.569c-0.266,0.246 -0.527,0.424 -0.783,0.534c-0.257,0.11 -0.531,0.165 -0.824,0.165c-0.326,0 -0.625,-0.075 -0.898,-0.225c-0.273,-0.15 -0.491,-0.364 -0.654,-0.644c-0.163,-0.279 -0.244,-0.612 -0.244,-0.998c0,-0.598 0.186,-1.062 0.559,-1.392c0.372,-0.329 0.871,-0.494 1.497,-0.494c0.226,0 0.457,0.028 0.693,0.085c0.236,0.057 0.454,0.138 0.654,0.245c-0.007,-0.36 -0.043,-0.646 -0.11,-0.859c-0.066,-0.213 -0.196,-0.377 -0.389,-0.494c-0.193,-0.116 -0.482,-0.174 -0.868,-0.174l-0.639,0l0,-0.659l0.788,0c0.546,0 0.96,0.098 1.243,0.294c0.283,0.197 0.472,0.459 0.569,0.789c0.096,0.329 0.144,0.743 0.144,1.242l0,3.154Zm-127.482,0l-0.738,0l0,-0.569c-0.266,0.246 -0.527,0.424 -0.784,0.534c-0.256,0.11 -0.53,0.165 -0.823,0.165c-0.326,0 -0.625,-0.075 -0.898,-0.225c-0.273,-0.15 -0.491,-0.364 -0.654,-0.644c-0.163,-0.279 -0.244,-0.612 -0.244,-0.998c0,-0.598 0.186,-1.062 0.559,-1.392c0.372,-0.329 0.871,-0.494 1.497,-0.494c0.226,0 0.457,0.028 0.693,0.085c0.236,0.057 0.454,0.138 0.654,0.245c-0.007,-0.36 -0.043,-0.646 -0.11,-0.859c-0.067,-0.213 -0.196,-0.377 -0.389,-0.494c-0.193,-0.116 -0.483,-0.174 -0.868,-0.174l-0.639,0l0,-0.659l0.788,0c0.546,0 0.96,0.098 1.243,0.294c0.283,0.197 0.472,0.459 0.569,0.789c0.096,0.329 0.144,0.743 0.144,1.242l0,3.154Zm32.964,-5.449l1.277,0l0,0.708l-1.277,0l0,3.453c0,0.273 0.043,0.46 0.129,0.559c0.087,0.1 0.25,0.15 0.489,0.15c0.2,0 0.416,-0.027 0.649,-0.08l0,0.699c-0.246,0.06 -0.489,0.09 -0.728,0.09c-0.333,0 -0.591,-0.044 -0.774,-0.13c-0.183,-0.087 -0.313,-0.223 -0.389,-0.409c-0.077,-0.187 -0.115,-0.443 -0.115,-0.769l0,-3.563l-0.698,0l0,-0.708l0.698,0l0,-1.896l0.739,0l0,1.896Zm135.456,5.579c-0.479,0 -0.819,-0.094 -1.018,-0.28c-0.2,-0.186 -0.3,-0.512 -0.3,-0.978l0,-7.315l0.739,0l0,7.155c0,0.273 0.043,0.46 0.13,0.559c0.086,0.1 0.249,0.15 0.489,0.15c0.186,0 0.346,-0.013 0.479,-0.04l0,0.689c-0.193,0.04 -0.366,0.06 -0.519,0.06Zm-47.784,-0.04l-0.778,0l-2.166,-5.569l0.779,0l1.776,4.631l1.776,-4.631l0.779,0l-2.166,5.569Zm45.219,-4.99l-0.23,0c-0.585,0 -1.154,0.246 -1.706,0.738l0,4.162l-0.739,0l0,-5.479l0.739,0l0,0.639c0.259,-0.24 0.535,-0.426 0.828,-0.559c0.293,-0.133 0.586,-0.2 0.878,-0.2l0.23,0l0,0.699Zm-27.395,4.9l-0.768,0l0,-7.565l0.808,0l3.972,6.238l0,-6.238l0.769,0l0,7.565l-0.799,0l-3.982,-6.238l0,6.238Zm-33.432,0l-0.739,0l0,-5.479l0.739,0l0,5.479Zm-13.114,-4.9l-0.229,0c-0.586,0 -1.154,0.246 -1.707,0.738l0,4.162l-0.738,0l0,-5.479l0.738,0l0,0.639c0.26,-0.24 0.536,-0.426 0.829,-0.559c0.292,-0.133 0.585,-0.2 0.878,-0.2l0.229,0l0,0.699Zm-100.945,4.9l-0.739,0l0,-8.443l0.739,0l0,3.583c0.259,-0.233 0.535,-0.414 0.828,-0.544c0.293,-0.13 0.585,-0.195 0.878,-0.195c0.665,0 1.156,0.175 1.472,0.524c0.316,0.349 0.474,0.937 0.474,1.762l0,3.313l-0.738,0l0,-3.313c0,-0.579 -0.093,-0.988 -0.28,-1.228c-0.186,-0.239 -0.515,-0.359 -0.988,-0.359c-0.559,0 -1.108,0.243 -1.646,0.728l0,4.172Zm185.035,0l-0.738,0l0,-5.479l0.738,0l0,0.619c0.26,-0.233 0.536,-0.414 0.829,-0.544c0.292,-0.13 0.585,-0.195 0.878,-0.195c0.665,0 1.156,0.175 1.472,0.524c0.316,0.349 0.474,0.937 0.474,1.762l0,3.313l-0.739,0l0,-3.313c0,-0.579 -0.093,-0.988 -0.279,-1.228c-0.186,-0.239 -0.516,-0.359 -0.988,-0.359c-0.559,0 -1.108,0.243 -1.647,0.728l0,4.172Zm-118.33,0l-0.739,0l0,-5.479l0.739,0l0,0.619c0.259,-0.233 0.535,-0.414 0.828,-0.544c0.293,-0.13 0.585,-0.195 0.878,-0.195c0.666,0 1.156,0.175 1.472,0.524c0.316,0.349 0.474,0.937 0.474,1.762l0,3.313l-0.738,0l0,-3.313c0,-0.579 -0.093,-0.988 -0.28,-1.228c-0.186,-0.239 -0.515,-0.359 -0.988,-0.359c-0.559,0 -1.107,0.243 -1.646,0.728l0,4.172Zm23.532,0l-4.022,0l0,-0.689l2.974,-4.111l-2.794,0l0,-0.679l3.622,0l0,0.679l-2.973,4.111l3.193,0l0,0.689Zm-104.209,0l-2.485,0l0,-7.565l2.485,0c1.211,0 2.124,0.321 2.739,0.963c0.616,0.642 0.923,1.585 0.923,2.829c0,1.251 -0.306,2.193 -0.918,2.825c-0.612,0.632 -1.527,0.948 -2.744,0.948Zm152.821,0l-0.739,0l0,-5.479l0.739,0l0,0.619c0.259,-0.233 0.535,-0.414 0.828,-0.544c0.293,-0.13 0.586,-0.195 0.878,-0.195c0.666,0 1.156,0.175 1.472,0.524c0.316,0.349 0.474,0.937 0.474,1.762l0,3.313l-0.738,0l0,-3.313c0,-0.579 -0.093,-0.988 -0.28,-1.228c-0.186,-0.239 -0.515,-0.359 -0.988,-0.359c-0.558,0 -1.107,0.243 -1.646,0.728l0,4.172Zm-44.78,-0.529c0.592,0 1.053,-0.206 1.382,-0.619c0.33,-0.412 0.494,-0.945 0.494,-1.597c0,-0.645 -0.164,-1.174 -0.494,-1.586c-0.329,-0.413 -0.79,-0.619 -1.382,-0.619c-0.592,0 -1.053,0.206 -1.382,0.619c-0.329,0.412 -0.494,0.941 -0.494,1.586c0,0.652 0.165,1.185 0.494,1.597c0.329,0.413 0.79,0.619 1.382,0.619Zm68.192,-0.01c0.519,0 1.035,-0.223 1.547,-0.669l0,-3.054c-0.519,-0.452 -1.034,-0.678 -1.547,-0.678c-0.559,0 -0.983,0.186 -1.272,0.559c-0.289,0.372 -0.434,0.918 -0.434,1.636c0,0.726 0.143,1.274 0.429,1.647c0.286,0.373 0.712,0.559 1.277,0.559Zm18.154,0c0.525,0 1.041,-0.23 1.547,-0.689l0,-1.437c-0.38,-0.199 -0.806,-0.299 -1.278,-0.299c-0.386,0 -0.71,0.095 -0.973,0.284c-0.263,0.19 -0.394,0.504 -0.394,0.943c0,0.42 0.111,0.724 0.334,0.914c0.223,0.189 0.478,0.284 0.764,0.284Zm-173.669,0c0.526,0 1.041,-0.23 1.547,-0.689l0,-1.437c-0.379,-0.199 -0.805,-0.299 -1.278,-0.299c-0.386,0 -0.71,0.095 -0.973,0.284c-0.262,0.19 -0.394,0.504 -0.394,0.943c0,0.42 0.112,0.724 0.334,0.914c0.223,0.189 0.478,0.284 0.764,0.284Zm127.482,0c0.526,0 1.041,-0.23 1.547,-0.689l0,-1.437c-0.379,-0.199 -0.805,-0.299 -1.277,-0.299c-0.386,0 -0.711,0.095 -0.974,0.284c-0.262,0.19 -0.394,0.504 -0.394,0.943c0,0.42 0.112,0.724 0.335,0.914c0.222,0.189 0.477,0.284 0.763,0.284Zm58.452,0c0.519,0 1.034,-0.223 1.547,-0.669l0,-3.054c-0.519,-0.452 -1.035,-0.678 -1.547,-0.678c-0.559,0 -0.983,0.186 -1.273,0.559c-0.289,0.372 -0.434,0.918 -0.434,1.636c0,0.726 0.143,1.274 0.429,1.647c0.287,0.373 0.712,0.559 1.278,0.559Zm-166.364,0c0.566,0 0.992,-0.186 1.278,-0.559c0.286,-0.373 0.429,-0.918 0.429,-1.637c0,-0.718 -0.145,-1.265 -0.434,-1.641c-0.29,-0.376 -0.714,-0.564 -1.273,-0.564c-0.519,0 -1.038,0.226 -1.557,0.678l0,3.054c0.513,0.446 1.032,0.669 1.557,0.669Zm-11.407,0c0.526,0 1.042,-0.23 1.547,-0.689l0,-1.437c-0.379,-0.199 -0.805,-0.299 -1.277,-0.299c-0.386,0 -0.71,0.095 -0.973,0.284c-0.263,0.19 -0.394,0.504 -0.394,0.943c0,0.42 0.111,0.724 0.334,0.914c0.223,0.189 0.477,0.284 0.763,0.284Zm61.785,0c0.566,0 0.992,-0.186 1.278,-0.559c0.286,-0.373 0.429,-0.918 0.429,-1.637c0,-0.718 -0.145,-1.265 -0.434,-1.641c-0.29,-0.376 -0.714,-0.564 -1.273,-0.564c-0.519,0 -1.037,0.226 -1.556,0.678l0,3.054c0.512,0.446 1.031,0.669 1.556,0.669Zm-90.666,-6.337l-1.717,0l0,6.187l1.717,0c0.958,0 1.678,-0.249 2.16,-0.748c0.483,-0.499 0.724,-1.288 0.724,-2.365c0,-1.052 -0.245,-1.827 -0.734,-2.326c-0.489,-0.499 -1.205,-0.748 -2.15,-0.748Zm118.301,6.137c0.525,0 1.044,-0.223 1.556,-0.668l0,-2.855c-0.519,-0.452 -1.038,-0.678 -1.556,-0.678c-0.553,0 -0.975,0.186 -1.268,0.559c-0.293,0.372 -0.439,0.885 -0.439,1.537c0,0.672 0.145,1.191 0.434,1.556c0.29,0.366 0.714,0.549 1.273,0.549Zm-48.073,-1.856l-2.934,0l0,-0.718l2.934,0l0,0.718Zm112.293,-2.355c-0.433,0 -0.79,0.125 -1.073,0.374c-0.283,0.25 -0.464,0.624 -0.544,1.123l3.094,0c-0.04,-0.512 -0.18,-0.89 -0.419,-1.133c-0.24,-0.243 -0.593,-0.364 -1.058,-0.364Zm-175.146,0c-0.433,0 -0.79,0.125 -1.073,0.374c-0.283,0.25 -0.464,0.624 -0.544,1.123l3.094,0c-0.04,-0.512 -0.18,-0.89 -0.419,-1.133c-0.24,-0.243 -0.592,-0.364 -1.058,-0.364Zm68.901,0c-0.433,0 -0.791,0.125 -1.073,0.374c-0.283,0.25 -0.464,0.624 -0.544,1.123l3.094,0c-0.04,-0.512 -0.18,-0.89 -0.42,-1.133c-0.239,-0.243 -0.592,-0.364 -1.057,-0.364Zm-15.529,0c-0.433,0 -0.79,0.125 -1.073,0.374c-0.283,0.25 -0.464,0.624 -0.544,1.123l3.094,0c-0.04,-0.512 -0.18,-0.89 -0.419,-1.133c-0.24,-0.243 -0.592,-0.364 -1.058,-0.364Zm-14.321,0c-0.433,0 -0.79,0.125 -1.073,0.374c-0.283,0.25 -0.464,0.624 -0.544,1.123l3.094,0c-0.04,-0.512 -0.18,-0.89 -0.419,-1.133c-0.24,-0.243 -0.592,-0.364 -1.058,-0.364Zm89.16,0c-0.433,0 -0.79,0.125 -1.073,0.374c-0.283,0.25 -0.464,0.624 -0.544,1.123l3.094,0c-0.04,-0.512 -0.18,-0.89 -0.42,-1.133c-0.239,-0.243 -0.592,-0.364 -1.057,-0.364Zm-38.782,0c-0.432,0 -0.79,0.125 -1.073,0.374c-0.283,0.25 -0.464,0.624 -0.544,1.123l3.094,0c-0.04,-0.512 -0.18,-0.89 -0.419,-1.133c-0.24,-0.243 -0.592,-0.364 -1.058,-0.364Zm73.621,0c-0.432,0 -0.79,0.125 -1.073,0.374c-0.282,0.25 -0.464,0.624 -0.544,1.123l3.094,0c-0.04,-0.512 -0.18,-0.89 -0.419,-1.133c-0.24,-0.243 -0.592,-0.364 -1.058,-0.364Zm-162.711,-1.597l-0.748,0l1.058,-1.527l0.898,0l-1.208,1.527Zm120.317,-0.01l-0.739,0l0,-0.788l0.739,0l0,0.788Z" style="fill:#fff;fill-rule:nonzero;"/></g><g id="Embleem"><path id="TofRoof" d="M5.142,27.102l0,5.279l-5.142,0l0,-7.013l22.277,-19.359l22.278,19.359l0,7.013l-5.142,0l0,-5.279l-17.136,-15.144l-17.135,15.144Z" style="fill:#fff;fill-rule:nonzero;"/><path id="BottomKnifeFork" d="M16.529,50.782c0.147,-2.006 0.269,-3.486 0.302,-5.52c0,0 -2.993,0.07 -3.045,-0.981c-0.208,-4.206 2.595,-20.128 4.411,-18.913c1.011,0.676 1.198,15.849 1.225,25.414l5.379,0c0.135,-4.409 0.296,-8.933 0.354,-11.669c0.016,-0.742 -0.204,-1.446 -0.806,-1.801c-0.983,-0.58 -1.647,-1.644 -1.661,-2.868l0.198,-9.076l1.113,0l0.086,7.625c0.004,0.356 0.296,0.641 0.652,0.637c0.356,-0.004 0.642,-0.296 0.637,-0.652l-0.034,-7.61l1.257,0l0.11,7.594c0.004,0.356 0.296,0.642 0.652,0.638c0.356,-0.005 0.642,-0.297 0.637,-0.653l-0.003,-7.567l1.079,-0.012l0.385,8.997c0.014,1.224 -0.626,2.303 -1.594,2.905c-0.594,0.369 -0.797,1.079 -0.764,1.82c0.123,2.741 0.409,7.28 0.649,11.692l11.665,0l0,-4.958l5.142,-0.007l0,10.107l-44.555,0l0,-10.107l5.142,0.007l0,4.958l11.387,0Z" style="fill:#ea5c24;"/><path id="HalalSign" d="M38.606,0c3.283,0 5.949,2.666 5.949,5.949c0,3.283 -2.666,5.949 -5.949,5.949c-3.284,0 -5.949,-2.666 -5.949,-5.949c0,-3.283 2.665,-5.949 5.949,-5.949Zm4.967,6.836c0.051,-0.288 0.078,-0.584 0.078,-0.887c0,-2.785 -2.261,-5.045 -5.045,-5.045c-2.785,0 -5.046,2.26 -5.046,5.045c0,0.47 0.065,0.925 0.185,1.357c0.18,-0.948 0.64,-1.075 0.64,-1.075c0,0 -0.316,0.622 -0.026,1.007c0.16,0.213 0.46,0.345 0.783,0.345c0.446,0 0.859,-0.159 0.857,-0.802c-0.001,-0.124 -0.114,-2.534 -0.49,-2.939c0.18,-0.109 0.374,-0.246 0.628,-0.492c0,0 0.575,1.021 0.557,1.022c-0.522,0.03 -0.129,2.764 -0.117,2.89c0.079,0.859 -1.037,1.178 -1.723,1.178c-0.268,0 -0.587,-0.079 -0.718,-0.15c0.844,1.607 2.53,2.704 4.47,2.704c2.266,0 4.186,-1.498 4.821,-3.557c-0.674,0.42 -2.026,0.53 -2.724,0.344c-1.105,-0.294 -1.105,-1.986 -1.104,-2.007c-0.264,1.298 -0.803,2.213 -1.683,2.213c-0.669,0 -0.825,-0.434 -0.825,-0.434c0.351,0.116 1.518,-0.305 1.26,-1.088c-0.212,-0.642 -0.369,-0.738 -0.793,-1.232l0.002,0.14c-0.615,-0.236 -0.662,-0.819 -0.609,-1.232c0.024,-0.191 0.026,-0.514 0.026,-0.514c0.331,0.176 1.584,1.547 1.874,2.665c0.284,-0.951 0.866,-2.579 1.17,-2.599c0,0 -0.135,1.188 0.218,2.556c0.338,1.309 1.954,0.863 2.423,0.832c-0.106,-0.078 -0.199,-0.23 -0.405,-0.407c-0.4,-0.344 -1.073,-0.597 -1.19,-0.008c0,0 -0.243,-0.097 -0.243,-0.306c0.001,-0.348 0.383,-0.726 0.79,-0.726c0.544,0 0.871,0.389 1.141,0.644c0.327,0.311 0.599,0.515 0.818,0.558Z" style="fill:#fff;"/></g></g></svg>