<?xml version="1.0" encoding="utf-8"?>
<!-- Generator: Adobe Illustrator 19.2.0, SVG Export Plug-In . SVG Version: 6.00 Build 0)  -->
<svg version="1.1" id="Laag_1" xmlns="http://www.w3.org/2000/svg" xmlns:xlink="http://www.w3.org/1999/xlink" x="0px" y="0px"
	 viewBox="0 0 155.1 91.8" style="enable-background:new 0 0 155.1 91.8;" xml:space="preserve">
<style type="text/css">
	.st0{fill:#FFFFFF;}
</style>
<g id="wO5tMO.tif">
	<g>
		<path d="M83.5,33.3c1.8-0.1,3.5,0.2,5,1.2c0.4,0.2,0.7,0.6,1,0.9c0.6,0.8,0.3,1.5-0.7,1.6c-0.8,0.1-1.5,0.2-2.3,0.2
			c-5.4,0.2-10.8,0.4-16.3,0.6c-1.7,0-3.2-0.7-4.6-1.6c-0.5-0.3-1-0.8-0.8-1.5c0.2-0.7,0.8-1,1.4-1c0.4,0,0.8-0.1,1.2-0.1
			c1.7,0,3.5,0,5.2,0"/>
		<path d="M75.7,45.4c-1.5,0-3.3,0-5.2,0c-1.8,0-3.4-0.6-4.9-1.6c-0.5-0.3-1.1-0.8-0.9-1.6c0.2-0.7,0.8-1,1.5-1c0.2,0,0.5,0,0.8,0
			c4.5-0.1,9-0.1,13.5-0.2c1,0,1.9-0.1,2.9-0.2c1.8-0.2,3.4,0.3,4.9,1.1c0.1,0.1,0.2,0.1,0.3,0.2c0.6,0.5,1.2,1,1,1.8
			c-0.2,0.8-1.1,0.7-1.7,0.8C84,44.9,80,45.1,75.7,45.4z"/>
		<path d="M83.8,48.2c1.8-0.1,3.4,0.4,4.9,1.3c0.1,0,0.1,0.1,0.2,0.1c0.5,0.5,1.1,1,0.9,1.7c-0.2,0.7-1,0.7-1.6,0.7
			c-3.1,0.2-6.1,0.4-9.2,0.5c-2.7,0.1-5.4,0.1-8.1,0.2c-1.9,0.1-3.5-0.6-5-1.5c-0.2-0.1-0.4-0.3-0.6-0.5c-0.6-0.7-0.4-1.6,0.5-1.9
			c0.5-0.2,1-0.2,1.5-0.2c1.9,0,3.8,0,5.7,0"/>
	</g>
</g>
</svg>
