<?xml version="1.0" encoding="utf-8"?>
<!-- Generator: Adobe Illustrator 19.2.0, SVG Export Plug-In . SVG Version: 6.00 Build 0)  -->
<svg version="1.1" id="Laag_1" xmlns="http://www.w3.org/2000/svg" xmlns:xlink="http://www.w3.org/1999/xlink" x="0px" y="0px"
	 viewBox="0 0 128.6 94.2" style="enable-background:new 0 0 128.6 94.2;" xml:space="preserve">
<style type="text/css">
	.st0{fill:#FFFFFF;}
</style>
<g id="vMsZo4.tif">
	<g>
		<path d="M64.1,54.9c1.5,0,3.1,0,4.6,0c7.8-0.1,15.5-0.2,23.3-0.3c1.1,0,2.8-0.3,2.8,1.2c0,1.3-0.7,2.9-1.7,3.8
			c-0.7,0.7-2.3,0.8-3.4,0.9c-8.9,0.2-17.8,0.2-26.8,0.3c-0.2,0-0.4,0.1-0.8,0.1c3.4,3.2,6.7,6.3,10,9.4c1.1,1,1.9,1.9,0.5,3.3
			c-1.5,1.6-3.4,2.1-4.7,1c-1.1-0.9-2.1-1.9-3.1-2.9c-4.3-3.8-8.6-7.5-13-11.2c-2.4-2-2.2-5,0.4-6.6c5.5-3.2,11-6.5,16.5-9.8
			c1-0.6,2.2-2.1,3.4-0.2c1.4,2.2,1.3,4-0.5,5.2c-2.5,1.7-5.1,3.4-7.6,5.1C64.1,54.5,64.1,54.7,64.1,54.9z"/>
	</g>
</g>
</svg>
