<?xml version="1.0" encoding="utf-8"?>
<!-- Generator: Adobe Illustrator 19.2.0, SVG Export Plug-In . SVG Version: 6.00 Build 0)  -->
<svg version="1.1" id="Laag_1" xmlns="http://www.w3.org/2000/svg" xmlns:xlink="http://www.w3.org/1999/xlink" x="0px" y="0px"
	 viewBox="0 0 174.3 96.9" style="enable-background:new 0 0 174.3 96.9;" xml:space="preserve">
<style type="text/css">
	.st0{fill:#FFFFFF;}
</style>
<path d="M97.4,58.7c0.1,1.4-0.3,2.7-1.2,3.9c-0.2,0.3-0.6,0.6-0.9,0.8c-0.8,0.4-1.5,0.2-1.6-0.5c-0.1-0.6-0.2-1.2-0.2-1.8
	c-0.2-4.2-0.4-8.4-0.5-12.5c0-1.3,0.7-2.5,1.6-3.5c0.3-0.4,0.8-0.8,1.5-0.6c0.7,0.1,1,0.6,1,1.1c0,0.3,0,0.6,0,0.9c0,1.3,0,2.7,0,4"
	/>
<path d="M85.4,52.6c0-1.2,0-2.6,0-4c0-1.4,0.6-2.6,1.6-3.7c0.3-0.4,0.8-0.8,1.6-0.7c0.7,0.2,1,0.6,1,1.2c0,0.2,0,0.4,0,0.6
	c0,3.5,0.1,7,0.1,10.4c0,0.7,0.1,1.5,0.2,2.2c0.2,1.4-0.3,2.6-1.2,3.8c-0.1,0.1-0.1,0.2-0.2,0.2c-0.5,0.4-1,0.9-1.8,0.8
	c-0.8-0.2-0.7-0.8-0.8-1.3C85.8,59,85.6,56,85.4,52.6z"/>
</svg>
