<?xml version="1.0" encoding="utf-8"?>
<!-- Generator: Adobe Illustrator 19.2.0, SVG Export Plug-In . SVG Version: 6.00 Build 0)  -->
<svg version="1.1" id="Laag_1" xmlns="http://www.w3.org/2000/svg" xmlns:xlink="http://www.w3.org/1999/xlink" x="0px" y="0px"
	 viewBox="0 0 132.6 89.4" style="enable-background:new 0 0 132.6 89.4;" xml:space="preserve">
<style type="text/css">
	.st0{fill:#FFFFFF;}
</style>
<g id="AOPTMD.tif">
	<g>
		<path d="M57.2,31.5c0,4.3,0.1,8.6,0.1,13c0,0.4,0,0.7-0.5,0.9c-0.5,0.2-0.5,0.7-0.3,1.1c0.3,0.6,0.5,1.2,0.9,1.7
			c0.5,0.6,1.3,0.5,2,0.2c3.2-1.2,6.5-2.3,9.7-3.6c1.8-0.7,3.5-1.6,5.4-2.2c1.1-0.4,1.5-1.3,1.7-2.3c0.2-1.2,0-1.6-1.1-2.2
			c-4.5-2.4-8.9-5.2-13.1-8.1c-1.1-0.8-2.3-1.1-3.6-0.5c-1,0.5-1.3,1-1.3,2.1C57.1,31.5,57.1,31.5,57.2,31.5z"/>
	</g>
</g>
</svg>
